<?xml version="1.0" encoding="utf-8"?>
<!-- Generator: Adobe Illustrator 15.0.0, SVG Export Plug-In . SVG Version: 6.00 Build 0)  -->
<!DOCTYPE svg PUBLIC "-//W3C//DTD SVG 1.1//EN" "http://www.w3.org/Graphics/SVG/1.1/DTD/svg11.dtd">
<svg version="1.1" id="图层_1" xmlns="http://www.w3.org/2000/svg" xmlns:xlink="http://www.w3.org/1999/xlink" x="0px" y="0px"
	 width="512px" height="512px" viewBox="0 0 512 512" enable-background="new 0 0 512 512" xml:space="preserve">
<path d="M367.715,489.482c-9.25,0-17.748-0.771-25.47-2.317c-25.137-5.032-36.488-17.156-41.585-26.441
	c-9.289-16.922-5.467-38.583,9.294-52.676c17.874-17.063,27.58-44.551,22.575-63.937c-2.452-9.502-7.951-15.438-16.345-17.643
	c-13.257-3.485-16.126-2.609-26.797,0.645c-3.065,0.935-6.539,1.994-10.93,3.161c-1.463,0.39-3.807,1.391-6.288,2.451
	c-11.649,4.979-30.999,13.246-50.505,0.461c-2.553,0.592-8.83,3.413-15.986,6.63c-19.486,8.759-55.756,25.063-125.604,48.346
	c-26.342,8.781-46.951,9.186-61.255,1.202c-12.383-6.909-15.174-17.453-15.451-18.632l-0.067-0.321
	c-0.09-0.479-2.16-11.902,0.582-24.579c3.845-17.777,14.973-29.387,32.18-33.573c17.5-4.256,59.18-15.273,95.954-24.994
	c50.143-13.254,65.686-17.301,71.167-18.526c0.189-0.266,0.388-0.549,0.569-0.808c4.268-6.088,13.149-18.754,35.302-24.292
	c24.562-6.14,39.458-12.219,49.812-20.325c9.427-7.385,20.275-31.106,15.941-48.742c-2.591-10.543-10.342-17.078-23.036-19.421
	c-22.964-4.239-36.984-19.375-36.591-39.5c0.325-16.625,10.738-34.267,28.569-48.4c19.985-15.841,48.112-26.751,81.342-31.551
	c32.892-4.751,60.794-4.014,82.937,2.188c21.02,5.888,35.541,16.492,41.993,30.667c9.078,19.943,0.447,43.949-23.089,64.215
	c-11.761,10.128-17.52,19.034-17.116,26.472c0.556,10.227,12.977,18.769,23.936,26.306c5.827,4.008,11.332,7.793,15.06,11.85
	c10.757,11.707,16.925,29.25,17.369,49.398c0.369,16.735-3.28,33.627-9.523,44.083c-3.396,5.688-9.027,10.073-14.473,14.313
	c-5.944,4.629-12.091,9.416-11.883,13.669c0.151,3.101,3.399,10.195,23.452,22.883l-7.486,11.83
	c-20.188-12.772-29.424-23.268-29.949-34.03c-0.563-11.515,8.908-18.89,17.265-25.397c4.427-3.447,9.005-7.012,11.055-10.445
	c8.951-14.991,13.421-55.547-6.134-76.83c-2.657-2.891-7.528-6.241-12.686-9.788c-12.943-8.901-29.053-19.98-29.98-37.082
	c-0.661-12.168,6.522-24.545,21.96-37.839c18.83-16.215,25.931-33.64,19.482-47.807c-8.022-17.623-41.694-34.691-110.187-24.798
	c-38.894,5.618-62.061,18.689-74.646,28.666c-14.545,11.529-23.025,25.271-23.269,37.703c-0.258,13.183,8.903,22.461,25.135,25.458
	c18.074,3.337,30.181,13.937,34.091,29.848c5.512,22.427-6.491,51.813-20.905,63.104c-12.158,9.52-28.106,16.15-55.048,22.885
	c-17.084,4.271-23.687,13.688-27.234,18.748c-1.94,2.768-4.126,5.885-8.077,6.216c-4.308,0.844-38.48,9.877-71.544,18.616
	c-36.836,9.737-78.587,20.773-96.222,25.063c-27.263,6.633-22.944,38.104-22.354,41.712c0.326,1.012,2.277,6.181,9.013,9.777
	c7.399,3.952,22.014,6.729,49.617-2.471c69.178-23.06,105.03-39.176,124.291-47.834c16.994-7.64,22.718-10.215,28.613-6.102
	c13.514,9.418,27.734,3.343,38.117-1.094c3.087-1.318,5.752-2.458,8.19-3.106c4.147-1.104,7.493-2.123,10.445-3.023
	c12.333-3.759,17.994-5.112,34.438-0.794c13.28,3.49,22.636,13.321,26.343,27.684c6.276,24.313-4.854,56.933-26.463,77.563
	c-10.18,9.718-12.93,24.444-6.689,35.813c3.377,6.151,15.785,21.5,54.98,21.502c15.033,0,34.002-2.257,57.92-8.156
	c38.906-9.596,65.43-29.232,67.571-50.027c1.371-13.308-7.846-25.419-25.952-34.102l6.053-12.623
	c23.489,11.263,35.818,28.816,33.826,48.159c-2.798,27.159-32.741,50.987-78.146,62.185
	C406.082,486.624,385.513,489.481,367.715,489.482z M206.226,268.217c-0.313,0.01-0.612,0.043-0.894,0.093
	C205.729,268.248,205.999,268.225,206.226,268.217z"/>
</svg>
