<?xml version="1.0" encoding="utf-8"?>
<!-- Generator: Adobe Illustrator 15.0.0, SVG Export Plug-In . SVG Version: 6.00 Build 0)  -->
<!DOCTYPE svg PUBLIC "-//W3C//DTD SVG 1.1//EN" "http://www.w3.org/Graphics/SVG/1.1/DTD/svg11.dtd">
<svg version="1.1" id="图层_1" xmlns="http://www.w3.org/2000/svg" xmlns:xlink="http://www.w3.org/1999/xlink" x="0px" y="0px"
	 width="512px" height="512px" viewBox="0 0 512 512" enable-background="new 0 0 512 512" xml:space="preserve">
<g>
	<path d="M215.641,465.054c-23.143,0-41.971-18.826-41.971-41.967v-101.45c0-23.142,18.828-41.969,41.971-41.969h81.725
		c23.142,0,41.969,18.827,41.969,41.969v65.266c0,3.866-3.134,7-7,7s-7-3.134-7-7v-65.266c0-15.422-12.547-27.969-27.969-27.969
		h-81.725c-15.423,0-27.971,12.547-27.971,27.969v101.45c0,15.421,12.548,27.967,27.971,27.967c3.866,0,7,3.134,7,7
		S219.507,465.054,215.641,465.054z"/>
	<g>
		<path d="M222.424,465.054h-81.316c-42.424,0-76.938-34.514-76.938-76.937V257.522H10.072c-2.909,0-5.515-1.799-6.546-4.52
			s-0.271-5.795,1.908-7.723L251.866,27.287c2.648-2.342,6.628-2.342,9.276,0L507.565,245.28c2.18,1.928,2.939,5.002,1.908,7.723
			c-1.03,2.721-3.637,4.52-6.546,4.52h-61.091c-3.866,0-7-3.133-7-7s3.134-7,7-7h42.613L256.504,41.876L28.55,243.523h42.62
			c3.866,0,7,3.134,7,7v137.594c0,34.703,28.234,62.937,62.938,62.937h81.316c3.866,0,7,3.134,7,7S226.29,465.054,222.424,465.054z"
			/>
		<path d="M357.91,465.134c-2.427,0-4.065-0.058-4.636-0.081h-55.911c-3.866,0-7-3.134-7-7s3.134-7,7-7
			c15.423,0,27.971-12.546,27.971-27.967v-101.45c0-15.422-12.548-27.969-27.971-27.969h-81.724
			c-15.422,0-27.969,12.547-27.969,27.969V386.9c0,3.866-3.134,7-7,7s-7-3.134-7-7v-65.265c0-23.142,18.827-41.969,41.969-41.969
			h81.724c23.143,0,41.971,18.827,41.971,41.969v101.45c0,10.732-4.051,20.538-10.703,27.967h24.795
			c0.107,0,0.216,0.003,0.323,0.008c0.336,0.015,34.087,1.4,51.632-9.643c18.445-11.607,29.457-31.534,29.457-53.302v-60.214
			c0-3.866,3.134-7,7-7s7,3.134,7,7v60.214c0,26.608-13.458,50.964-36,65.151C395.838,463.967,368.862,465.134,357.91,465.134z"/>
	</g>
</g>
</svg>
