<?xml version="1.0" encoding="utf-8"?>
<!-- Generator: Adobe Illustrator 15.0.0, SVG Export Plug-In . SVG Version: 6.00 Build 0)  -->
<!DOCTYPE svg PUBLIC "-//W3C//DTD SVG 1.1//EN" "http://www.w3.org/Graphics/SVG/1.1/DTD/svg11.dtd">
<svg version="1.1" id="图层_1" xmlns="http://www.w3.org/2000/svg" xmlns:xlink="http://www.w3.org/1999/xlink" x="0px" y="0px"
	 width="512px" height="512px" viewBox="0 0 512 512" enable-background="new 0 0 512 512" xml:space="preserve">
<g>
	<path d="M205.58,426.106c-18.419,0-36.862-2.501-54.797-7.502c-52.35-14.589-95.881-48.694-122.575-96.032
		C1.513,275.235-5.147,220.333,9.453,167.981C24.05,115.632,58.158,72.1,105.494,45.406
		c47.337-26.694,102.237-33.355,154.587-18.756c52.353,14.596,95.887,48.705,122.582,96.044
		c26.696,47.339,33.356,102.242,18.755,154.594c-1.038,3.725-4.896,5.897-8.623,4.862c-3.724-1.039-5.9-4.899-4.861-8.624
		c13.596-48.75,7.394-99.874-17.465-143.956C345.61,85.489,305.071,53.727,256.32,40.135c-48.749-13.595-99.87-7.393-143.949,17.466
		c-44.079,24.857-75.84,65.394-89.433,114.141c-13.596,48.75-7.394,99.875,17.463,143.954c24.857,44.08,65.393,75.838,114.14,89.423
		c65.335,18.219,135.918-0.104,184.2-47.817c2.748-2.719,7.182-2.691,9.898,0.059c2.718,2.749,2.691,7.182-0.059,9.898
		c-25.076,24.782-56.332,42.729-90.39,51.901C240.993,423.792,223.297,426.106,205.58,426.106z"/>
	<path d="M474.778,492.127c-0.144,0-0.287-0.001-0.431-0.004c-11.649-0.183-19.545-7.821-20.679-8.982L341.507,370.986
		c-2.734-2.733-2.734-7.166-0.001-9.899c2.734-2.734,7.167-2.733,9.899-0.001l112.199,112.191c0.033,0.033,0.066,0.066,0.099,0.101
		l0,0c0.001-0.001,3.013,2.982,7.383,4.221c5.335,1.518,10.471-0.234,15.695-5.339c12.812-12.521,8.063-19.854,5.62-23.174
		L373.676,327.002c-2.695-2.771-2.633-7.203,0.139-9.898c2.771-2.693,7.202-2.632,9.898,0.139l119.053,122.421
		c0.216,0.223,0.418,0.459,0.603,0.708c9.797,13.195,7.366,28.056-6.802,41.901C489.874,488.813,482.545,492.127,474.778,492.127z"
		/>
</g>
</svg>
