<?xml version="1.0" encoding="utf-8"?>
<!-- Generator: Adobe Illustrator 15.0.0, SVG Export Plug-In . SVG Version: 6.00 Build 0)  -->
<!DOCTYPE svg PUBLIC "-//W3C//DTD SVG 1.1//EN" "http://www.w3.org/Graphics/SVG/1.1/DTD/svg11.dtd">
<svg version="1.1" id="图层_1" xmlns="http://www.w3.org/2000/svg" xmlns:xlink="http://www.w3.org/1999/xlink" x="0px" y="0px"
	 width="512px" height="512px" viewBox="0 0 512 512" enable-background="new 0 0 512 512" xml:space="preserve">
<path d="M432.321,491.067H87.246c-19.786,0-35.882-16.097-35.882-35.883V304.462h163.522v21.869h30.211V365.9h32.209v-39.569h30.772
	v-21.869h160.122v150.723C468.201,474.971,452.105,491.067,432.321,491.067z M60.364,313.462v141.723
	c0,14.823,12.06,26.883,26.882,26.883h345.075c14.821,0,26.88-12.06,26.88-26.883V313.462H317.079v21.869h-30.772V374.9h-50.209
	v-39.569h-30.211v-21.869H60.364z M462.713,282.316H51.685c-23.08,0-41.857-18.776-41.857-41.856v-85.738
	c0-23.08,18.777-41.857,41.857-41.857h411.028c23.09,0,41.874,18.777,41.874,41.857v85.738
	C504.587,263.54,485.803,282.316,462.713,282.316z M51.685,121.865c-18.117,0-32.857,14.74-32.857,32.857v85.738
	c0,18.117,14.74,32.856,32.857,32.856h411.028c18.127,0,32.874-14.739,32.874-32.856v-85.738c0-18.117-14.747-32.857-32.874-32.857
	H51.685z M357.212,108.78h-32.216l-1.208-0.921c-18.045-13.752-40.443-21.021-64.775-21.021c-1.965,0-3.958,0.05-5.925,0.148
	c-22.408,1.113-43.961,8.698-59.134,20.811l-1.231,0.983h-30.619l-22.025-16.987l2.751-3.563c4.221-5.469,8.95-10.567,14.055-15.152
	c23.741-21.369,57.93-34.656,93.797-36.453c2.79-0.141,5.621-0.212,8.415-0.212c35.652,0,68.792,11.001,95.836,31.813
	c7.201,5.509,13.949,11.742,20.049,18.518l3.012,3.346L357.212,108.78z M328.017,99.78h25.744l11.464-10.312
	c-4.896-5.098-10.187-9.828-15.771-14.102c-25.467-19.599-56.708-29.954-90.357-29.954c-2.643,0-5.322,0.067-7.963,0.2
	c-33.838,1.695-65.997,14.145-88.231,34.157c-3.595,3.229-6.986,6.732-10.121,10.454l12.391,9.556h24.422
	c16.729-12.869,39.046-20.591,63.046-21.783c2.114-0.106,4.259-0.16,6.373-0.16C284.786,77.838,308.61,85.42,328.017,99.78z"/>
</svg>
