<?xml version="1.0" encoding="utf-8"?>
<!-- Generator: Adobe Illustrator 15.0.0, SVG Export Plug-In . SVG Version: 6.00 Build 0)  -->
<!DOCTYPE svg PUBLIC "-//W3C//DTD SVG 1.1//EN" "http://www.w3.org/Graphics/SVG/1.1/DTD/svg11.dtd">
<svg version="1.1" id="图层_1" xmlns="http://www.w3.org/2000/svg" xmlns:xlink="http://www.w3.org/1999/xlink" x="0px" y="0px"
	 width="512px" height="512px" viewBox="0 0 512 512" enable-background="new 0 0 512 512" xml:space="preserve">
<path d="M454.813,506.855H143.229l88.327-41.733h223.257V506.855z M183.344,497.855h262.469v-23.733H233.575L183.344,497.855z
	 M102.041,498.218l-48.391-27.95l-4.143-110.575l150.492,86.874L102.041,498.218z M62.458,464.961l39.781,22.978l79.14-41.729
	L59.111,375.628L62.458,464.961z M224.212,414.49c-9.042,0-16.899-2.358-24.021-7.211c-8.02-5.474-13.821-13.503-17.671-24.481
	c-0.43,0.006-0.858,0.009-1.285,0.009c-15.208,0.001-29.429-3.699-42.269-10.996c-13.671-7.767-25.41-19.559-34.925-35.073
	c-3.942,0.736-7.754,1.109-11.371,1.109c-6.867,0-13.288-1.34-19.087-3.982c-17.502-7.953-27.024-25.548-28.296-52.293l-0.336-7.022
	l3.591-6.217L164.738,67.027h0.033l13.79-23.918l0,0l1.61-2.837c7.779-13.487,20.316-23.247,35.38-27.572l0.017-0.014l1.004-0.28
	c5.103-1.37,10.362-2.064,15.632-2.064c10.446,0,20.755,2.765,29.812,7.995l117.012,67.56c13.816,7.976,23.713,20.903,27.868,36.402
	c3.741,13.932,2.393,28.407-3.762,41.253l0.16,0.083l-2.328,4.109l-27.728,48.022l-103.923,180.02l-3.929,6.776l-7.109,3.197
	C245.22,411.633,234.078,414.49,224.212,414.49z M189.053,373.528l1.013,3.373c3.238,10.786,8.067,18.076,15.196,22.942
	c5.575,3.799,11.775,5.646,18.95,5.646c8.565,0,18.5-2.598,30.371-7.941l4.469-2.01l2.472-4.264l103.932-180.034l3.706-6.423
	l21.647-37.487l-0.003-0.001l2.332-4.111c6.794-11.746,8.592-25.452,5.064-38.591c-3.533-13.178-11.941-24.166-23.676-30.939
	L257.514,26.128c-7.69-4.441-16.442-6.789-25.311-6.789c-4.28,0-8.552,0.539-12.709,1.603l-0.604,0.168
	c-12.796,3.445-23.515,11.455-30.308,22.618l-0.599,1.057l-18.011,31.242h-0.037L54.068,276.76l0.21,4.382
	c1.114,23.429,8.649,37.994,23.034,44.531c7.87,3.585,17.196,4.122,27.928,1.617l3.245-0.757l1.67,2.883
	c8.989,15.508,20.179,27.139,33.258,34.569c12.66,7.195,26.852,10.473,42.123,9.715L189.053,373.528z M356.041,180.763l-7.419-4.275
	l-39.309-22.708L190.555,85.213l15.879-27.218l0.309,0.311c5.107-6.419,12.125-11.029,20.232-13.202
	c3.308-0.883,6.709-1.331,10.111-1.331c6.744,0,13.388,1.782,19.215,5.152l98.519,56.885c8.905,5.142,15.284,13.481,17.96,23.484
	c2.699,10.029,1.354,20.452-3.788,29.341l-2.195,3.795l-0.047-0.025L356.041,180.763z M202.88,81.947l149.898,86.548l9.083-15.569
	c3.385-6.532,4.18-14.041,2.227-21.298c-2.057-7.685-6.945-14.083-13.768-18.022l-98.522-56.887
	c-6.724-3.889-14.924-4.94-22.497-2.919c-7.672,2.056-14.07,6.951-18.014,13.784l-2.938,5.091l-0.037-0.037L202.88,81.947z"/>
</svg>
