<?xml version="1.0" encoding="utf-8"?>
<!-- Generator: Adobe Illustrator 15.0.0, SVG Export Plug-In . SVG Version: 6.00 Build 0)  -->
<!DOCTYPE svg PUBLIC "-//W3C//DTD SVG 1.1//EN" "http://www.w3.org/Graphics/SVG/1.1/DTD/svg11.dtd">
<svg version="1.1" id="图层_1" xmlns="http://www.w3.org/2000/svg" xmlns:xlink="http://www.w3.org/1999/xlink" x="0px" y="0px"
	 width="512px" height="512px" viewBox="0 0 512 512" enable-background="new 0 0 512 512" xml:space="preserve">
<g>
	<g id="Rounded_Rectangle_4">
		<path d="M497.141,381.148h-9V229.711c0-22.585-13.442-42.867-34.247-51.671l3.508-8.288c24.141,10.215,39.739,33.75,39.739,59.959
			V381.148z"/>
		<path d="M27.686,381.148h-9V229.711c0-26.654,15.962-50.338,40.667-60.338l3.377,8.343c-21.288,8.617-35.043,29.027-35.043,51.996
			V381.148z"/>
		<path fill="none" stroke="#000000" stroke-width="9" stroke-miterlimit="10" d="M83.763,169.139"/>
	</g>
	<path d="M65.548,217.05h-9V47.986c0-15.005,12.209-27.213,27.215-27.213h243.73l131.788,131.786v63.004h-9v-59.276L323.765,29.773
		H83.763c-10.044,0-18.215,8.17-18.215,18.213V217.05z"/>
	<rect x="245.648" y="331.221" width="23.833" height="9"/>
	<rect x="159.772" y="275.086" width="195.019" height="9"/>
	<rect x="108.343" y="241.668" width="296.498" height="9"/>
	<rect x="98.679" y="208.251" width="302.364" height="9"/>
	<rect x="98.679" y="174.833" width="302.364" height="9"/>
	<rect x="98.679" y="141.414" width="201.92" height="9"/>
	<rect x="98.679" y="107.998" width="201.92" height="9"/>
	<path fill="none" stroke="#000000" stroke-width="9" stroke-miterlimit="10" d="M113.431,337.027"/>
	<rect x="210.028" y="308.504" width="94.486" height="9"/>
	<path d="M454.899,499.227H61.047c-23.358,0-42.361-19.002-42.361-42.358V229.711c0-12.165,5.377-23.797,14.752-31.915l2.546-2.205
		l221.622,142.46L479.88,193.918l2.559,2.234c9.344,8.16,14.702,19.847,14.701,32.065v228.437c0,22.174-16.515,40.394-38.413,42.381
		c-0.635,0.061-1.295,0.086-1.956,0.108l-0.455,0.017c-0.135,0.004-0.253,0.014-0.37,0.021
		C455.6,499.206,455.253,499.227,454.899,499.227z M36.923,206.895c-5.906,6.204-9.237,14.354-9.237,22.816v227.157
		c0,18.394,14.966,33.358,33.361,33.358h393.853c0.142,0,0.28-0.014,0.418-0.022c0.221-0.016,0.441-0.03,0.664-0.038l0.481-0.018
		c0.479-0.016,0.958-0.029,1.431-0.074c17.251-1.566,30.246-15.933,30.246-33.42V228.217c0.001-8.516-3.318-16.715-9.204-22.959
		L257.628,348.765L36.923,206.895z"/>
	<g id="Curve">
		<path d="M450.911,148.341H353.9c-13.198,0-23.936-10.737-23.936-23.935v-97.01L450.911,148.341z M338.965,49.124v75.283
			c0,8.235,6.7,14.935,14.936,14.935h75.282L338.965,49.124z"/>
	</g>
	<path fill="none" stroke="#000000" stroke-width="4" stroke-miterlimit="10" d="M184.206,274.618"/>
	<path fill="none" stroke="#000000" stroke-width="4" stroke-miterlimit="10" d="M184.206,274.618"/>
	<path fill="none" stroke="#000000" stroke-width="4" stroke-miterlimit="10" d="M139.642,267.573"/>
</g>
</svg>
