<?xml version="1.0" encoding="utf-8"?>
<!-- Generator: Adobe Illustrator 15.0.0, SVG Export Plug-In . SVG Version: 6.00 Build 0)  -->
<!DOCTYPE svg PUBLIC "-//W3C//DTD SVG 1.1//EN" "http://www.w3.org/Graphics/SVG/1.1/DTD/svg11.dtd">
<svg version="1.1" id="图层_1" xmlns="http://www.w3.org/2000/svg" xmlns:xlink="http://www.w3.org/1999/xlink" x="0px" y="0px"
	 width="512px" height="512px" viewBox="0 0 512 512" enable-background="new 0 0 512 512" xml:space="preserve">
<g>
	<g>
		<path d="M90.72,258.852c0-89.097,72.214-155.036,161.313-155.036l-5.993-72.624c-22.277,0-41.592,3.016-68.314,11.961
			C84.896,74.208,17.994,155.569,17.994,258.846"/>
		<path d="M91.22,258.852h-1c0-42.844,16.834-82.369,47.401-111.292c30.026-28.412,70.447-44.112,113.869-44.242l-5.911-71.625
			c-23.178,0.044-42.206,3.402-67.695,11.935C81.059,76.019,18.494,160.498,18.494,258.846h-1
			c0-49.749,15.615-96.511,45.157-135.233c28.476-37.324,68.213-65.31,114.916-80.934c25.77-8.626,44.968-11.987,68.473-11.987h0.46
			l6.076,73.624h-0.543C161.858,104.316,91.22,172.196,91.22,258.852z"/>
	</g>
	<g>
		<path d="M250.064,420.163c-85.681-4.707-152.397-69.021-159.344-145.381l-72.727,0.521c0,125.35,102.121,217.583,234.04,217.583
			L250.064,420.163z"/>
		<path d="M252.547,493.386h-0.514c-133.71,0-234.54-93.755-234.54-218.083v-0.496l0.497-0.004l73.187-0.523l0.042,0.458
			c7.099,78.036,75.4,140.341,158.873,144.927l0.46,0.025L252.547,493.386z M18.494,275.799
			C18.763,399.15,118.813,492.146,251.52,492.386l-1.943-71.749c-83.592-4.808-151.956-67.184-159.312-145.352L18.494,275.799z"/>
	</g>
	<g>
		<path d="M266.579,492.784c137.456,0,234.006-106.271,234.006-230.835c0-115.615-95.405-230.843-237.673-230.836l5.795,72.792
			c89.098,0,153.146,65.849,153.883,154.945c0.693,82.771-69.354,161.231-158.453,161.231L266.579,492.784z"/>
		<path d="M266.579,493.284h-0.483l-0.017-0.483l-2.459-73.22h0.517c40.996,0,80.145-16.71,110.232-47.052
			c30.673-30.931,48.066-72.364,47.721-113.676c-0.739-89.494-65.246-154.449-153.383-154.449h-0.462l-0.036-0.46l-5.838-73.332
			h0.541c66.452,0,127.727,25.647,172.548,72.218c41.706,43.333,65.625,101.33,65.625,159.118c0,61.636-23.297,119.338-65.6,162.479
			C391.945,468.831,331.96,493.284,266.579,493.284z M264.653,420.58l2.409,71.704c130.709-0.247,233.022-101.333,233.022-230.335
			c0-110.64-90.459-230.044-236.632-230.336l5.716,71.792c88.479,0.223,153.178,65.526,153.921,155.44
			c0.349,41.576-17.15,83.269-48.011,114.389C344.928,403.64,305.731,420.441,264.653,420.58z"/>
	</g>
	<path stroke="#000000" stroke-miterlimit="10" d="M123.66,88.711"/>
	<path stroke="#000000" stroke-miterlimit="10" d="M147.229,169.036"/>
	<path stroke="#000000" stroke-miterlimit="10" d="M197.989,74.869"/>
</g>
</svg>
