<?xml version="1.0" encoding="utf-8"?>
<!-- Generator: Adobe Illustrator 15.0.0, SVG Export Plug-In . SVG Version: 6.00 Build 0)  -->
<!DOCTYPE svg PUBLIC "-//W3C//DTD SVG 1.1//EN" "http://www.w3.org/Graphics/SVG/1.1/DTD/svg11.dtd">
<svg version="1.1" id="图层_1" xmlns="http://www.w3.org/2000/svg" xmlns:xlink="http://www.w3.org/1999/xlink" x="0px" y="0px"
	 width="512px" height="512px" viewBox="0 0 512 512" enable-background="new 0 0 512 512" xml:space="preserve">
<path fill="none" stroke="#626262" stroke-width="3" stroke-miterlimit="10" d="M144.13,210.789"/>
<path fill="none" stroke="#1A1A1A" stroke-linecap="round" stroke-linejoin="round" d="M254.74,204.378"/>
<path fill="none" stroke="#1A1A1A" stroke-linecap="round" stroke-linejoin="round" d="M234.661,226.835"/>
<path d="M428.122,444.698c-16.725,0.002-30.481-9.331-38.375-14.685c-0.755-0.512-1.471-0.997-2.145-1.445
	c-27.802-18.478-113.029-115.736-158.816-167.986c-7.309-8.341-13.989-15.964-18.337-20.848l-30.924,34.445
	c-0.856,0.958-2.398,2.685-4.579,4.003c0.188,6.371-0.304,14.47-1.331,18.988c-2.024,8.899-6.955,16.238-10.555,21.597
	c-0.513,0.765-0.998,1.485-1.438,2.16c-5.949,9.123-15.421,15.304-25.989,16.961c-7.709,1.206-19.494,0.539-31.866-9.506
	l-73.606-59.697c-22.092-17.92-16.664-42.109-5.303-57.378c5.551-7.459,15.534-14.347,22.46-17.591
	c7.405-3.471,17.39-6.428,24.832-7.586c0.604-1.921,1.611-3.708,2.998-5.265l94.491-105.69c1.961-2.193,3.938-3.842,5.921-4.943
	c0.442-7.235,2.583-16.807,5.113-24.129c2.404-6.947,10.587-18.699,14.436-23.448c6.841-8.457,16.891-13.637,27.569-14.208
	c7.795-0.413,19.455,1.451,30.744,12.707l67.107,66.922c11.291,11.25,13.195,22.903,12.803,30.698
	c-0.536,10.682-5.687,20.749-14.13,27.619c-10.062,8.186-17.447,12.927-22.58,14.495l-4.09-13.389
	c1.175-0.359,5.933-2.283,17.834-11.965c5.292-4.307,8.65-10.834,8.984-17.462c0.356-7.107-2.653-14.05-8.705-20.08l-67.108-66.924
	c-6.05-6.032-13.005-9.026-20.112-8.64c-6.626,0.354-13.144,3.732-17.435,9.036c-3.823,4.719-10.579,14.861-12.085,19.213
	c-3.718,10.76-4.829,21.224-4.357,23.584l2.522,11.535l-10.219-3.002c-0.372,0.284-0.959,0.8-1.776,1.712L85.593,190.188
	c-0.175,0.197-0.082,0.646-0.049,0.779l2.361,9.583l-9.825-0.941c-2.579-0.233-14.956,2.159-24.82,6.783
	c-5.427,2.542-13.287,8.056-17.168,13.271c-4.995,6.713-14.713,23.869,2.89,38.147l73.609,59.699
	c6.633,5.385,13.852,7.644,20.876,6.546c6.558-1.028,12.7-5.057,16.43-10.775c0.472-0.725,0.993-1.5,1.545-2.322
	c3.153-4.693,7.078-10.534,8.524-16.893c1.089-4.794,1.333-16.474,0.637-19.911L158.343,263l9.917,2.727
	c0.206-0.202,0.479-0.486,0.836-0.887l40.906-45.563l5.221,4.979c2.023,1.93,9.249,10.159,24.094,27.099
	c42.126,48.074,129.786,148.108,156.036,165.553c0.708,0.471,1.46,0.98,2.254,1.519c6.858,4.652,16.251,11.022,27.201,12.093
	c12.904,1.257,25.063-5.236,37.187-19.862c10.106-12.193,14.49-24.426,13.028-36.356c-2.376-19.394-19.144-33.117-24.226-36.86
	c-0.184-0.135-0.31-0.229-0.376-0.281c-62.124-48.31-205.613-142.373-207.055-143.317l-6.805-4.457l29.327-32.804l10.438,9.331
	l-18.494,20.687c29.39,19.371,146.438,96.937,201.184,139.509l0.085,0.061c6.223,4.584,26.762,21.479,29.819,46.431
	c1.948,15.905-3.483,31.716-16.146,46.992C456.979,438.646,441.588,444.697,428.122,444.698z"/>
<path fill="none" stroke="#000000" stroke-miterlimit="10" d="M298.772,176.94"/>
<path fill="none" stroke="#000000" stroke-miterlimit="10" d="M284.585,183.078"/>
</svg>
