<?xml version="1.0" encoding="utf-8"?>
<!-- Generator: Adobe Illustrator 15.0.0, SVG Export Plug-In . SVG Version: 6.00 Build 0)  -->
<!DOCTYPE svg PUBLIC "-//W3C//DTD SVG 1.1//EN" "http://www.w3.org/Graphics/SVG/1.1/DTD/svg11.dtd">
<svg version="1.1" id="图层_1" xmlns="http://www.w3.org/2000/svg" xmlns:xlink="http://www.w3.org/1999/xlink" x="0px" y="0px"
	 width="512px" height="512px" viewBox="0 0 512 512" enable-background="new 0 0 512 512" xml:space="preserve">
<g>
	<g>
		<path fill="#0D0C0C" d="M89.315,346.54H6.661V100.563c0-7.528,5.807-7.926,12.968-7.926h56.719c7.165,0,12.967,0.398,12.967,7.926
			V346.54z"/>
		<path fill="#0D0C0C" d="M6.661,428.483c0,7.521,5.807,7.923,12.968,7.923h56.719c7.165,0,12.967-0.4,12.967-7.923H6.661z"/>
		<rect x="6.661" y="380.063" fill="#0D0C0C" width="82.654" height="48.422"/>
		<rect x="6.661" y="355.098" fill="#0D0C0C" width="82.654" height="15.336"/>
	</g>
	<g>
		<path fill="#0D0C0C" d="M184.193,346.54h-82.651V100.563c0-7.528,5.803-7.926,12.967-7.926h56.723
			c7.164,0,12.961,0.398,12.961,7.926V346.54z"/>
		<path fill="#0D0C0C" d="M101.542,428.483c0,7.521,5.803,7.923,12.967,7.923h56.723c7.164,0,12.961-0.4,12.961-7.923H101.542z"/>
		<rect x="101.542" y="380.063" fill="#0D0C0C" width="82.651" height="48.422"/>
		<rect x="101.542" y="355.098" fill="#0D0C0C" width="82.651" height="15.336"/>
	</g>
	<g>
		<path fill="#0D0C0C" d="M279.076,346.54h-82.657V100.563c0-7.528,5.81-7.926,12.968-7.926h56.729c7.163,0,12.96,0.398,12.96,7.926
			V346.54z"/>
		<path fill="#0D0C0C" d="M196.419,428.483c0,7.521,5.81,7.923,12.968,7.923h56.729c7.163,0,12.96-0.4,12.96-7.923H196.419z"/>
		<rect x="196.419" y="380.063" fill="#0D0C0C" width="82.657" height="48.422"/>
		<rect x="196.419" y="355.098" fill="#0D0C0C" width="82.657" height="15.336"/>
	</g>
	<g>
		<path fill="#0D0C0C" d="M467.52,310.578l-73.235,38.32L280.229,130.966c-3.486-6.669,1.471-9.713,7.815-13.033L338.3,91.632
			c6.348-3.323,11.673-5.664,15.158,1.008L467.52,310.578z"/>
		<path fill="#0D0C0C" d="M432.289,421.496c3.486,6.678,8.812,4.336,15.151,1.018l50.265-26.305
			c6.347-3.325,11.301-6.371,7.813-13.033L432.289,421.496z"/>
		<polygon fill="#0D0C0C" points="505.52,383.176 432.289,421.496 409.83,378.602 483.065,340.273 		"/>
		<polygon fill="#0D0C0C" points="478.594,331.742 405.369,370.07 398.26,356.48 471.489,318.16 		"/>
	</g>
</g>
</svg>
