<?xml version="1.0" encoding="utf-8"?>
<!-- Generator: Adobe Illustrator 15.0.0, SVG Export Plug-In . SVG Version: 6.00 Build 0)  -->
<!DOCTYPE svg PUBLIC "-//W3C//DTD SVG 1.1//EN" "http://www.w3.org/Graphics/SVG/1.1/DTD/svg11.dtd">
<svg version="1.1" id="图层_1" xmlns="http://www.w3.org/2000/svg" xmlns:xlink="http://www.w3.org/1999/xlink" x="0px" y="0px"
	 width="512px" height="512px" viewBox="0 0 512 512" enable-background="new 0 0 512 512" xml:space="preserve">
<path d="M220.387,442.586c-59.56,0-112-0.695-137.665-3.071c-29.288-2.711-50.735-14.578-63.748-35.272
	C8.776,388.023,4.157,367.03,5.244,341.847c1.855-42.948,18.968-74.99,50.861-95.234c15.706-9.97,32.336-15.24,45.504-18.199
	c-13.217-6.876-24.861-16.9-33.902-29.379c-14.806-20.435-21.729-45.85-20.021-73.499c3.924-63.516,71.02-105.655,113.677-105.655
	c31.193,0,64.179,14.746,88.237,39.445c21.586,22.162,33.07,49.744,32.335,77.665c-0.812,30.899-10.685,55.92-29.345,74.369
	c-8.776,8.677-18.066,14.472-25.865,18.407c15.816,5.077,36.956,14.342,55.027,30.746c15.977,14.504,24.407,32.789,28.729,49.814
	c8.563-14.168,20.67-22.565,28.765-27.305c-13.119-12.662-28.069-40.522-28.069-64.6c0-19.396,8.196-40.897,21.926-57.517
	c15.996-19.364,37.712-30.028,61.147-30.028c23.601-0.001,45.782,10.182,62.458,28.674c14.799,16.411,23.634,37.874,23.634,57.414
	c0.025,4.463-0.201,27.457-7.182,37.929l-11.648-7.765c3.408-5.114,4.877-20.696,4.83-30.127c0-16.208-7.488-34.167-20.03-48.075
	c-13.987-15.51-32.476-24.051-52.062-24.05c-42.796,0-69.073,42.835-69.073,73.545c0,27.367,21.83,55.477,27.678,57.659
	c5.024,1.209,5.937,5.167,6.097,6.356c0.722,5.358-3.523,7.657-8.018,10.091c-10.36,5.61-33.086,17.913-36.263,48.89
	c0.132,4.874,0.013,9.102-0.177,12.419c-0.015,0.249-0.026,0.434-0.03,0.55c0.01-0.254-0.004-0.433-0.01-0.532
	c0,0.002,0,0.002,0,0.002l-13.974,0.856c0-0.002-0.001-0.005-0.001-0.007l0,0c-0.287-4.729-0.222-9.176,0.143-13.363
	c-0.644-18.481-5.421-49.715-28.279-70.466c-24.724-22.443-57.048-30.238-66.367-32.092c-0.489-0.097-0.803-0.166-0.932-0.198
	c-4.185-1.048-5.848-4.186-6.008-6.772c-0.345-5.558,4.373-7.382,8.934-9.147c14.42-5.579,58.303-22.557,59.97-86.045
	c0.635-24.113-9.439-48.095-28.369-67.528c-21.156-21.72-51.124-35.213-78.208-35.213c-37.847,0-96.387,38.849-99.703,92.519
	c-3.405,55.12,31.326,88.658,65.036,96.494c2.07,0.481,8.37,1.946,8.095,8.129c-0.096,2.171-1.17,5.987-7.276,7.155
	c-1.2,0.229-2.778,0.451-4.775,0.731C98.096,242.371,23.1,252.906,19.231,342.45c-1.514,35.045,8.497,77.914,64.781,83.125
	c44.828,4.149,174.237,3.078,278.217,2.219c32.383-0.268,62.97-0.521,87.475-0.584c28.559-0.073,46.298-23.387,46.295-60.842
	c-0.005-49.984-56.708-78.302-57.281-78.582l6.152-12.576c2.659,1.301,65.123,32.533,65.129,91.156
	c0.002,23.275-6.074,42.566-17.573,55.789c-10.647,12.244-25.807,19.011-42.686,19.055c-24.465,0.063-55.032,0.315-87.395,0.583
	C316.844,442.17,266.481,442.586,220.387,442.586z"/>
</svg>
