<?xml version="1.0" encoding="utf-8"?>
<!-- Generator: Adobe Illustrator 15.0.0, SVG Export Plug-In . SVG Version: 6.00 Build 0)  -->
<!DOCTYPE svg PUBLIC "-//W3C//DTD SVG 1.1//EN" "http://www.w3.org/Graphics/SVG/1.1/DTD/svg11.dtd">
<svg version="1.1" id="图层_1" xmlns="http://www.w3.org/2000/svg" xmlns:xlink="http://www.w3.org/1999/xlink" x="0px" y="0px"
	 width="512px" height="512px" viewBox="0 0 512 512" enable-background="new 0 0 512 512" xml:space="preserve">
<g>
	<rect x="441.657" y="126.479" width="27.504" height="89.393"/>
	<path d="M371.642,353.402c0,0-0.013-51.777,0-68.759c0.013-20.635-27.51-23.758-27.51-23.758h-91.891h-0.622h-91.894
		c0,0-27.525,3.123-27.507,23.758c0.016,16.981,0,68.759,0,68.759h119.401h0.622H371.642z M350.392,341.523
		c0,2.072-1.68,3.753-3.752,3.753h-10.627c-2.079,0-3.76-1.681-3.76-3.753v-15.009c0-2.072,1.681-3.746,3.76-3.746h10.627
		c2.072,0,3.752,1.674,3.752,3.746V341.523z M341.003,273.382c11.057,0,20.011,8.959,20.011,20.011
		c0,11.045-8.954,20.005-20.011,20.005c-11.046,0-20-8.96-20-20.005C321.003,282.341,329.957,273.382,341.003,273.382z
		 M199.729,280.264h51.89h0.622h51.88v8.748h-51.88h-0.622h-51.89V280.264z M199.729,302.77h51.89h0.622h51.88v8.749h-51.88h-0.622
		h-51.89V302.77z M171.601,341.523c0,2.072-1.677,3.753-3.752,3.753H157.22c-2.069,0-3.749-1.681-3.749-3.753v-15.009
		c0-2.072,1.68-3.746,3.749-3.746h10.628c2.075,0,3.752,1.674,3.752,3.746V341.523z M162.849,313.397
		c-11.048,0-19.999-8.96-19.999-20.005c0-11.052,8.951-20.011,19.999-20.011c11.051,0,20.002,8.959,20.002,20.011
		C182.851,304.438,173.9,313.397,162.849,313.397z"/>
	<path d="M339.267,107.103c2.769,0,5.003-2.234,5.003-5.003c0-2.757-2.234-4.991-5.003-4.991c-2.757,0-4.99,2.234-4.99,4.991
		C334.276,104.869,336.51,107.103,339.267,107.103z"/>
	<path d="M340.915,304.724c6.241,0,11.3-5.053,11.3-11.3c0-6.235-5.059-11.294-11.3-11.294c-6.247,0-11.301,5.059-11.301,11.294
		C329.614,299.671,334.668,304.724,340.915,304.724z"/>
	<path d="M344.076,328.245h-5.427c-1.063,0-1.922,0.858-1.922,1.923v7.659c0,1.059,0.858,1.91,1.922,1.91h5.427
		c1.059,0,1.91-0.852,1.91-1.91v-7.659C345.986,329.104,345.135,328.245,344.076,328.245z"/>
	<rect x="34.699" y="126.479" width="27.503" height="89.393"/>
	<path d="M437.986,360.278h-17.585H373.44h-66.812v14.38h-54.388h-55.01v-14.38H130.42H83.459H65.874
		c-3.755,0-6.795,2.353-6.795,5.245v52.021c0,2.894,3.04,5.252,6.795,5.252h17.585h3.752v33.19c0,2.899,1.699,5.253,3.805,5.253
		h36.143c2.104,0,3.806-2.354,3.806-5.253v-33.19h15.005h51.261h55.01h54.388h51.256h15.008v33.19c0,2.899,1.705,5.253,3.809,5.253
		h36.146c2.104,0,3.796-2.354,3.796-5.253v-33.19h3.758h17.585c3.752,0,6.795-2.358,6.795-5.252v-52.021
		C444.781,362.631,441.738,360.278,437.986,360.278z"/>
	<polygon points="252.241,107.103 308.502,107.103 308.502,97.109 252.241,97.109 251.619,97.109 195.352,97.109 195.352,107.103 
		251.619,107.103 	"/>
	<path d="M114.378,353.402c0,0,0.022-59.468,0-78.977c-0.019-23.701,31.598-27.292,31.598-27.292h105.643h0.622h105.644
		c0,0,31.615,3.59,31.591,27.292c-0.013,19.509,0,78.977,0,78.977h39.682c0,0,0.615-233.798,0-238.795
		c-0.636-5.003-31.891-36.881-79.4-51.261c-45.455-13.758-93.741-12.638-97.83-12.514c-4.085-0.124-52.371-1.244-97.827,12.514
		c-47.516,14.38-78.768,46.258-79.393,51.261c-0.625,4.997,0,238.795,0,238.795H114.378z M339.136,90.85
		c6.21,0,11.256,5.034,11.256,11.25c0,6.223-5.046,11.257-11.256,11.257c-6.217,0-11.251-5.034-11.251-11.257
		C327.885,95.884,332.919,90.85,339.136,90.85z M189.73,88.355h61.889h0.622h61.886v26.252h-61.886h-0.622H189.73V88.355z
		 M164.722,90.85c6.213,0,11.25,5.034,11.25,11.25c0,6.223-5.038,11.257-11.25,11.257c-6.213,0-11.25-5.034-11.25-11.257
		C153.472,95.884,158.508,90.85,164.722,90.85z M140.348,173.261c0-17.896,16.048-32.395,35.841-32.395h75.43h0.622h75.426
		c19.794,0,35.843,14.499,35.843,32.395v18.35c0,17.89-16.049,32.395-35.843,32.395h-75.426h-0.622h-75.43
		c-19.793,0-35.841-14.504-35.841-32.395V173.261z"/>
	<path d="M164.585,107.103c2.763,0,5-2.234,5-5.003c0-2.757-2.237-4.991-5-4.991c-2.76,0-4.997,2.234-4.997,4.991
		C159.588,104.869,161.825,107.103,164.585,107.103z"/>
	<path d="M162.942,282.13c-6.241,0-11.3,5.059-11.3,11.294c0,6.247,5.059,11.3,11.3,11.3s11.297-5.053,11.297-11.3
		C174.239,287.188,169.184,282.13,162.942,282.13z"/>
	<path d="M165.21,328.245h-5.432c-1.054,0-1.91,0.858-1.91,1.923v7.659c0,1.059,0.856,1.91,1.91,1.91h5.432
		c1.058,0,1.914-0.852,1.914-1.91v-7.659C167.124,329.104,166.268,328.245,165.21,328.245z"/>
</g>
</svg>
