<?xml version="1.0" encoding="utf-8"?>
<!-- Generator: Adobe Illustrator 15.0.0, SVG Export Plug-In . SVG Version: 6.00 Build 0)  -->
<!DOCTYPE svg PUBLIC "-//W3C//DTD SVG 1.1//EN" "http://www.w3.org/Graphics/SVG/1.1/DTD/svg11.dtd">
<svg version="1.1" id="图层_1" xmlns="http://www.w3.org/2000/svg" xmlns:xlink="http://www.w3.org/1999/xlink" x="0px" y="0px"
	 width="512px" height="512px" viewBox="0 0 512 512" enable-background="new 0 0 512 512" xml:space="preserve">
<image overflow="visible" enable-background="new    " width="98" height="98" xlink:href="5D844D6.png"  transform="matrix(3.0985 0 0 3.0985 120.2393 -47.6523)">
</image>
<g>
	<path d="M322.93,112.627c-2.203-3.099-3.227-5.423-2.832-10.458c0.387-5.034,4.646-5.809,1.937-9.682
		c-2.713-3.871-132.08-4.26-132.08-4.26h-6.559c0,0-1.573,27.111,3.46,32.533c11.035,11.883,41.055,16.656,71.655,17.43
		c30.602,0.775,55.385-10.067,55.385-10.067C321.644,125.02,325.129,115.722,322.93,112.627z M309.891,100.693
		c0,0-29.414,18.98-56.523,17.426c-27.108-1.545-47.531-11.687-52.956-15.95c-5.422-4.263-2.324-3.489-2.324-3.489
		s37.571,5.039,58.102,3.489c20.53-1.55,53.837-5.034,56.163-5.809C314.675,95.585,309.891,100.693,309.891,100.693z"/>
	<path d="M261.657,138.729C261.655,138.729,261.657,138.729,261.657,138.729c-1.046,0-2.101-0.013-3.16-0.04
		c-21.292-0.539-58.961-3.54-72.008-17.59c-5.12-5.515-3.658-31.786-3.593-32.902l0.027-0.471h7.031
		c13.27,0.04,129.708,0.504,132.489,4.473c1.753,2.505,0.818,3.995-0.171,5.573c-0.714,1.137-1.522,2.426-1.676,4.435
		c-0.379,4.835,0.539,7.033,2.74,10.13c0.878,1.235,0.98,3.308,0.28,5.687c-1.037,3.526-4.157,8.409-9.537,10.563
		C313.863,128.683,290.563,138.729,261.657,138.729z M183.87,88.727c-0.176,3.617-1.124,26.872,3.352,31.692
		c12.798,13.782,50.166,16.736,71.301,17.271c30.12,0.768,54.934-9.921,55.172-10.025c5.062-2.027,7.989-6.611,8.964-9.923
		c0.604-2.052,0.553-3.856-0.136-4.826c-2.3-3.235-3.324-5.674-2.923-10.787c0.173-2.253,1.089-3.715,1.825-4.889
		c0.98-1.563,1.571-2.506,0.199-4.468c-2.742-2.682-80.248-3.892-131.671-4.046H183.87z M256.57,118.709
		c-1.087,0-2.175-0.031-3.232-0.091c-26.724-1.523-47.407-11.475-53.236-16.056c-3.416-2.686-3.53-3.405-3.355-3.912
		c0.068-0.196,0.275-0.525,0.9-0.525c0.274,0,0.533,0.063,0.561,0.07c0.227,0.027,28.375,3.77,48.992,3.77h0.001
		c3.349,0,6.36-0.099,8.95-0.294c21.101-1.593,53.859-5.057,56.042-5.785c0.647-0.217,1.066-0.078,1.234,0.309
		c0.106,0.246,0.431,0.993-3.172,4.84l-0.094,0.078c-0.273,0.176-27.572,17.595-53.588,17.597
		C256.573,118.709,256.571,118.709,256.57,118.709z M197.847,99.143c0.253,0.354,0.95,1.121,2.873,2.633
		c5.749,4.518,26.188,14.334,52.675,15.844c1.038,0.059,2.106,0.089,3.175,0.089c0.001,0,0.002,0,0.004,0
		c25.19-0.001,51.653-16.554,52.994-17.404c1.124-1.205,2.319-2.666,2.753-3.417c-3.645,0.911-36.356,4.29-56.095,5.78
		c-2.615,0.197-5.652,0.297-9.025,0.297c0,0,0,0-0.001,0c-20.685,0-48.897-3.751-49.18-3.789
		C197.972,99.165,197.911,99.153,197.847,99.143z"/>
</g>
<g>
	<g>
		<path d="M349.278,33.458c-1.043,0.134-1.688,0.217-1.688,0.217L349.278,33.458z"/>
		<rect x="347.934" y="32.716" transform="matrix(0.1269 0.9919 -0.9919 0.1269 337.5069 -316.3106)" width="1" height="1.701"/>
	</g>
	<g>
		<path d="M380.125,23.997c-10.845-2.714-30.622,9.437-30.622,9.437l-0.225,0.025c5.12-0.627,20.773-2.357,27.351-0.791
			c11.986,2.845,26.352,9.531,26.352,9.531C403.754,39.489,390.972,26.706,380.125,23.997z"/>
		<path d="M403.301,42.9l-0.531-0.248c-0.144-0.066-14.458-6.697-26.256-9.498c-1.741-0.415-4.3-0.625-7.604-0.625
			c-6.753,0-14.904,0.861-19.234,1.384l-0.002,0.001l-2.387,0.289l1.937-1.186l-0.006-0.056l0.122-0.015
			c1.461-0.885,16.528-9.846,27.275-9.846c1.322,0,2.544,0.138,3.631,0.41c9.466,2.364,20.003,12.018,22.585,16.487
			c0.585,1.011,0.791,1.775,0.63,2.337L403.301,42.9z M368.91,31.53c3.382,0,6.018,0.219,7.835,0.652
			c10.289,2.442,22.453,7.763,25.647,9.201c-0.081-0.225-0.214-0.515-0.427-0.883c-2.442-4.227-12.896-13.753-21.962-16.018
			c-1.009-0.252-2.148-0.38-3.389-0.38c-8.593,0-20.121,5.939-24.782,8.555C356.412,32.148,363.158,31.53,368.91,31.53z"/>
	</g>
	<g>
		<path d="M413.049,78.605c-0.514-12.393-7.412-27.651-7.746-30.983c-0.383-3.875-2.322-5.424-2.322-5.424
			c-0.774,2.71,2.322,22.854-1.55,38.731c-3.874,15.881-8.133,28.274-5.424,29.824c2.713,1.549,8.137,6.198,14.335,2.324
			c6.193-3.874,6.193-3.874,6.193-3.874S413.438,87.902,413.049,78.605z"/>
		<path d="M405.341,115.082L405.341,115.082c-3.438,0-6.419-1.901-8.391-3.159c-0.44-0.281-0.839-0.535-1.191-0.736
			c-2.288-1.309-0.827-7.29,2.423-19.612c0.858-3.253,1.83-6.94,2.764-10.764c2.668-10.943,2.001-24.008,1.603-31.814
			c-0.186-3.629-0.309-6.026-0.048-6.936l0.206-0.722l0.587,0.468c0.085,0.068,2.108,1.727,2.508,5.765
			c0.1,1,0.877,3.289,1.861,6.188c2.203,6.487,5.532,16.291,5.887,24.824c0.383,9.165,3.45,30.334,3.481,30.547l0.047,0.323
			l-6.47,4.047C408.929,114.55,407.157,115.082,405.341,115.082z M403.355,43.393c-0.03,1.218,0.071,3.208,0.19,5.552
			c0.402,7.861,1.074,21.017-1.63,32.103c-0.935,3.833-1.908,7.524-2.768,10.782c-2.477,9.392-4.616,17.503-2.894,18.489
			c0.364,0.208,0.776,0.471,1.232,0.761c1.986,1.267,4.707,3.001,7.854,3.002l0,0c1.626,0,3.219-0.481,4.736-1.429l5.917-3.701
			c-0.39-2.713-3.086-21.735-3.445-30.326c-0.348-8.39-3.648-18.111-5.833-24.544c-1.045-3.075-1.799-5.296-1.91-6.41
			C404.597,45.558,403.897,44.176,403.355,43.393z"/>
	</g>
</g>
<g>
	<path d="M257.993,51.233c-7.106,0-8.093,0.574-10.07,2.324c-2.96,2.628,5.433,6.749,11.507,5.892
		c6.057-0.857,8.219-3.99,8.247-4.981C267.707,53.467,265.223,51.233,257.993,51.233z"/>
	<path d="M257.715,60.064L257.715,60.064c-4.64,0-9.871-2.225-10.765-4.578c-0.318-0.836-0.09-1.655,0.641-2.304
		c2.057-1.821,3.138-2.45,10.402-2.45c6.475,0,8.846,1.724,9.564,2.465c0.417,0.43,0.631,0.875,0.619,1.285
		c-0.032,1.134-2.149,4.537-8.677,5.461C258.935,60.024,258.335,60.064,257.715,60.064z M257.993,51.733
		c-6.925,0-7.852,0.528-9.739,2.199c-0.553,0.491-0.476,0.92-0.37,1.2c0.672,1.77,5.34,3.932,9.83,3.933l0,0
		c0.573,0,1.126-0.037,1.645-0.11c5.79-0.819,7.797-3.779,7.817-4.5c0.003-0.077-0.065-0.28-0.337-0.56
		C266.348,53.387,264.257,51.733,257.993,51.733z"/>
</g>
<g>
	<path d="M216.683,30.581l-90.246,53.448c0,0-3.877,1.939,12.389,2.714c16.27,0.77,208.766,5.809,208.766,5.809V33.675
		L216.683,30.581z M257.154,63.889c-7.939,0-15.945-5.42-14.912-10.068c0,0,1.549-6.974,13.171-6.974s15.88,2.709,16.655,6.974
		C272.844,58.08,265.102,63.889,257.154,63.889z"/>
	<path d="M348.092,93.065l-0.513-0.013c-1.926-0.051-192.688-5.048-208.776-5.809c-12.845-0.612-13.13-1.962-13.251-2.539
		c-0.104-0.495,0.257-0.92,0.662-1.123l90.338-53.504l131.54,3.109V93.065z M126.576,84.534c0.305,0.273,2.086,1.224,12.274,1.709
		c15.667,0.742,197.187,5.505,208.242,5.795V34.163l-130.277-3.079l-90.123,53.375C126.648,84.482,126.607,84.509,126.576,84.534z
		 M257.154,64.389c-5.331,0-11.208-2.503-13.975-5.953c-1.268-1.581-1.761-3.214-1.425-4.724c0.067-0.301,1.772-7.365,13.659-7.365
		c10.782,0,16.231,2.346,17.147,7.384c0.263,1.443-0.307,3.054-1.646,4.659C268.505,61.28,263.17,64.389,257.154,64.389z
		 M255.413,47.347c-11.042,0-12.621,6.315-12.683,6.584c-0.338,1.519,0.482,2.948,1.229,3.879c2.593,3.232,8.142,5.579,13.195,5.579
		c5.694,0,10.727-2.923,12.993-5.639c1.126-1.35,1.634-2.714,1.429-3.84C271.064,51.093,268.831,47.347,255.413,47.347z"/>
</g>
<g>
	<g>
		<path d="M327.29,141.161c0,40.626-32.935,73.571-73.568,73.571c-40.628,0-73.565-32.945-73.565-73.571
			c0-40.629,32.937-73.568,73.565-73.568C294.355,67.592,327.29,100.531,327.29,141.161z"/>
		<path d="M253.722,215.232c-40.839,0-74.065-33.228-74.065-74.071c0-40.841,33.226-74.068,74.065-74.068
			c19.785,0,38.385,7.704,52.375,21.694s21.693,32.59,21.693,52.375C327.79,182.004,294.563,215.232,253.722,215.232z
			 M253.722,68.093c-40.288,0-73.065,32.778-73.065,73.068c0,40.292,32.777,73.071,73.065,73.071
			c40.29,0,73.068-32.779,73.068-73.071c0-19.518-7.6-37.867-21.4-51.667C291.59,75.693,273.24,68.092,253.722,68.093z"/>
	</g>
	<g>
		<path d="M298.15,219.255c-2.965,21.918-21.694,38.828-44.429,38.828c-22.731,0-41.464-16.91-44.429-38.828
			c-10.396,4.903-17.643,15.397-17.643,27.659v84.295c0,16.936,13.726,30.654,30.65,30.654h62.842
			c16.925,0,30.653-13.721,30.653-30.654v-84.295C315.796,234.652,308.552,224.158,298.15,219.255z"/>
		<path d="M285.141,362.363h-62.842c-17.176,0-31.15-13.976-31.15-31.154v-84.295c0-11.94,7.038-22.974,17.93-28.111l0.617-0.291
			l0.092,0.676c2.961,21.889,21.848,38.395,43.934,38.395s40.973-16.506,43.934-38.395l0.091-0.676l0.617,0.291
			c10.895,5.136,17.933,16.17,17.931,28.111v84.295C316.294,348.388,302.318,362.363,285.141,362.363z M208.894,220.004
			c-10.195,5.092-16.745,15.581-16.745,26.91v84.295c0,16.627,13.525,30.154,30.15,30.154h62.842
			c16.627,0,30.153-13.527,30.153-30.154v-84.295c0.002-11.331-6.549-21.82-16.745-26.91c-3.324,22.042-22.475,38.579-44.828,38.579
			C231.368,258.583,212.218,242.046,208.894,220.004z"/>
	</g>
	<g>
		<path d="M240.552,429.309c0,6.771-5.494,12.26-12.263,12.26H203.91c-6.769,0-12.259-5.489-12.259-12.26V383.33
			c0-6.771,5.49-12.264,12.259-12.264h24.379c6.769,0,12.263,5.492,12.263,12.264V429.309z"/>
		<path d="M228.289,442.068H203.91c-7.036,0-12.759-5.724-12.759-12.76V383.33c0-7.038,5.724-12.764,12.759-12.764h24.379
			c7.038,0,12.763,5.726,12.763,12.764v45.979C241.052,436.345,235.327,442.068,228.289,442.068z M203.91,371.566
			c-6.484,0-11.759,5.277-11.759,11.764v45.979c0,6.484,5.275,11.76,11.759,11.76h24.379c6.486,0,11.763-5.275,11.763-11.76V383.33
			c0-6.486-5.277-11.764-11.763-11.764H203.91z"/>
	</g>
	<g>
		<path d="M315.796,429.309c0,6.771-5.492,12.26-12.262,12.26h-24.376c-6.773,0-12.26-5.489-12.26-12.26V383.33
			c0-6.771,5.485-12.264,12.26-12.264h24.376c6.77,0,12.262,5.492,12.262,12.264V429.309z"/>
		<path d="M303.534,442.068h-24.376c-7.036,0-12.76-5.724-12.76-12.76V383.33c0-7.038,5.724-12.764,12.76-12.764h24.376
			c7.037,0,12.762,5.726,12.762,12.764v45.979C316.296,436.345,310.571,442.068,303.534,442.068z M279.158,371.566
			c-6.484,0-11.76,5.277-11.76,11.764v45.979c0,6.484,5.275,11.76,11.76,11.76h24.376c6.485,0,11.762-5.275,11.762-11.76V383.33
			c0-6.486-5.276-11.764-11.762-11.764H279.158z"/>
	</g>
	<g>
		<path d="M240.552,479.369c0,6.773-5.494,12.264-12.263,12.264H203.91c-6.769,0-12.259-5.489-12.259-12.264v-10.218
			c0-6.77,5.49-12.264,12.259-12.264h24.379c6.769,0,12.263,5.494,12.263,12.264V479.369z"/>
		<path d="M228.289,492.133H203.91c-7.036,0-12.759-5.726-12.759-12.764v-10.218c0-7.038,5.724-12.764,12.759-12.764h24.379
			c7.038,0,12.763,5.726,12.763,12.764v10.218C241.052,486.407,235.327,492.133,228.289,492.133z M203.91,457.388
			c-6.484,0-11.759,5.277-11.759,11.764v10.218c0,6.486,5.275,11.764,11.759,11.764h24.379c6.486,0,11.763-5.277,11.763-11.764
			v-10.218c0-6.486-5.277-11.764-11.763-11.764H203.91z"/>
	</g>
	<g>
		<path d="M315.796,479.369c0,6.773-5.492,12.264-12.262,12.264h-24.376c-6.773,0-12.26-5.489-12.26-12.264v-10.218
			c0-6.77,5.485-12.264,12.26-12.264h24.376c6.77,0,12.262,5.494,12.262,12.264V479.369z"/>
		<path d="M303.534,492.133h-24.376c-7.036,0-12.76-5.726-12.76-12.764v-10.218c0-7.038,5.724-12.764,12.76-12.764h24.376
			c7.037,0,12.762,5.726,12.762,12.764v10.218C316.296,486.407,310.571,492.133,303.534,492.133z M279.158,457.388
			c-6.484,0-11.76,5.277-11.76,11.764v10.218c0,6.486,5.275,11.764,11.76,11.764h24.376c6.485,0,11.762-5.277,11.762-11.764v-10.218
			c0-6.486-5.276-11.764-11.762-11.764H279.158z"/>
	</g>
	<g>
		<path d="M159.827,355.508c-1.405,6.256-7.903,10.104-14.503,8.614l-6.982-1.573c-6.604-1.484-10.818-7.757-9.414-14.006
			l23.362-103.642c1.404-6.249,7.902-10.098,14.507-8.609l6.979,1.578c6.605,1.477,10.819,7.751,9.414,13.997L159.827,355.508z"/>
		<path d="M148.18,364.942c-0.99,0-1.988-0.112-2.965-0.333l-6.982-1.573c-6.862-1.542-11.254-8.093-9.792-14.603l23.362-103.643
			c1.232-5.487,6.224-9.319,12.138-9.319c0.991,0,1.989,0.112,2.966,0.332l6.979,1.578c3.446,0.771,6.359,2.796,8.201,5.703
			c1.709,2.697,2.274,5.855,1.591,8.892l-23.363,103.641C159.082,361.107,154.091,364.942,148.18,364.942z M163.94,236.472
			c-5.443,0-10.033,3.511-11.163,8.538l-23.362,103.643c-1.342,5.972,2.711,11.986,9.036,13.407l6.982,1.574
			c0.905,0.204,1.829,0.308,2.746,0.308c5.44,0,10.03-3.514,11.16-8.544l23.363-103.641c0.625-2.776,0.106-5.666-1.46-8.137
			c-1.698-2.681-4.389-4.55-7.575-5.263l-6.98-1.578C165.781,236.576,164.857,236.472,163.94,236.472z"/>
	</g>
	<g>
		<path d="M355.613,267.863c-3.494,5.377-10.926,6.716-16.592,3.013l-5.998-3.911c-5.666-3.693-7.436-11.04-3.934-16.41
			l58.054-88.975c3.492-5.369,10.93-6.711,16.602-3.004l5.99,3.911c5.672,3.685,7.438,11.041,3.938,16.401L355.613,267.863z"/>
		<path d="M345.965,273.469c-2.545,0-5.041-0.752-7.217-2.174l-5.998-3.911c-2.849-1.857-4.844-4.655-5.617-7.879
			c-0.777-3.235-0.23-6.511,1.538-9.223l58.054-88.976c2.169-3.334,5.933-5.325,10.068-5.325c2.549,0,5.047,0.752,7.226,2.176
			l5.99,3.911c2.962,1.924,4.985,4.84,5.696,8.209c0.66,3.125,0.087,6.279-1.613,8.884l-58.06,88.975
			C353.862,271.475,350.099,273.469,345.965,273.469z M396.793,156.981c-3.796,0-7.246,1.821-9.23,4.871l-58.054,88.976
			c-1.617,2.479-2.116,5.478-1.404,8.443c0.714,2.975,2.558,5.558,5.192,7.274l5.998,3.911c2.013,1.316,4.319,2.012,6.67,2.012
			c3.794,0,7.244-1.823,9.229-4.878l58.06-88.976c1.555-2.38,2.077-5.268,1.473-8.13c-0.656-3.108-2.525-5.799-5.264-7.578
			l-5.991-3.912C401.456,157.677,399.146,156.981,396.793,156.981z"/>
	</g>
</g>
</svg>
