<?xml version="1.0" encoding="utf-8"?>
<!-- Generator: Adobe Illustrator 15.0.0, SVG Export Plug-In . SVG Version: 6.00 Build 0)  -->
<!DOCTYPE svg PUBLIC "-//W3C//DTD SVG 1.1//EN" "http://www.w3.org/Graphics/SVG/1.1/DTD/svg11.dtd">
<svg version="1.1" id="图层_1" xmlns="http://www.w3.org/2000/svg" xmlns:xlink="http://www.w3.org/1999/xlink" x="0px" y="0px"
	 width="512px" height="512px" viewBox="0 0 512 512" enable-background="new 0 0 512 512" xml:space="preserve">
<g>
	<path d="M416.382,508.276H114.526c-22.295,0-40.434-18.14-40.434-40.436V94.114c0-22.295,18.139-40.434,40.434-40.434h35.934v9
		h-35.934c-17.333,0-31.434,14.101-31.434,31.434v373.727c0,17.334,14.101,31.436,31.434,31.436h301.856
		c17.333,0,31.435-14.102,31.435-31.436V94.114c0-17.333-14.102-31.434-31.435-31.434h-35.935v-9h35.935
		c22.296,0,40.435,18.139,40.435,40.434v373.727C456.816,490.137,438.678,508.276,416.382,508.276z"/>
	<g id="Hanger">
		<path d="M366.073,112.99H164.836c-10.408,0-18.875-8.468-18.875-18.876v-43.12c0-10.407,8.467-18.874,18.875-18.874h68.43
			c3.715-16.644,18.448-28.748,35.781-28.748c17.332,0,32.066,12.103,35.784,28.748h61.242c10.407,0,18.874,8.467,18.874,18.874
			v43.12C384.947,104.522,376.48,112.99,366.073,112.99z M164.836,41.12c-5.445,0-9.875,4.43-9.875,9.874v43.12
			c0,5.446,4.43,9.876,9.875,9.876h201.237c5.444,0,9.874-4.43,9.874-9.876v-43.12c0-5.444-4.43-9.874-9.874-9.874h-69.071l-0.447-4
			c-1.579-14.108-13.404-24.748-27.508-24.748c-14.104,0-25.929,10.639-27.504,24.748l-0.447,4H164.836z M269.048,62.68
			c-12.389,0-22.467-10.079-22.467-22.467c0-12.388,10.078-22.467,22.467-22.467s22.468,10.079,22.468,22.467
			C291.516,52.602,281.437,62.68,269.048,62.68z M269.048,26.746c-7.426,0-13.467,6.041-13.467,13.467s6.041,13.467,13.467,13.467
			s13.468-6.042,13.468-13.467S276.474,26.746,269.048,26.746z"/>
	</g>
	<g id="Hanger_shadow">
		<path d="M366.073,98.614H164.836c-10.408,0-18.875-8.466-18.875-18.872h9c0,5.443,4.43,9.872,9.875,9.872h201.237
			c5.444,0,9.874-4.429,9.874-9.872h9C384.947,90.148,376.48,98.614,366.073,98.614z"/>
	</g>
	<path d="M152.7,264.364h38.646V225.72H152.7V264.364z M222.331,252.231h158.117v-14.375H222.331V252.231z M152.7,329.05h38.646
		v-38.647H152.7V329.05z M222.331,316.913h158.117v-14.372H222.331V316.913z M152.7,393.732h38.646v-38.646H152.7V393.732z
		 M222.331,381.596h158.117v-14.373H222.331V381.596z M222.331,173.172v14.376h158.117v-14.376H222.331z"/>
	<polygon points="206.044,159.998 195.671,151.387 164.987,188.361 148.692,175.008 140.147,185.438 166.74,207.227 
		166.784,207.172 166.852,207.227 	"/>
</g>
</svg>
