<?xml version="1.0" encoding="utf-8"?>
<!-- Generator: Adobe Illustrator 15.0.0, SVG Export Plug-In . SVG Version: 6.00 Build 0)  -->
<!DOCTYPE svg PUBLIC "-//W3C//DTD SVG 1.1//EN" "http://www.w3.org/Graphics/SVG/1.1/DTD/svg11.dtd">
<svg version="1.1" id="图层_1" xmlns="http://www.w3.org/2000/svg" xmlns:xlink="http://www.w3.org/1999/xlink" x="0px" y="0px"
	 width="512px" height="512px" viewBox="0 0 512 512" enable-background="new 0 0 512 512" xml:space="preserve">
<path fill="#F1EBEB" stroke="#000000" stroke-miterlimit="10" d="M282.244,89.896"/>
<g>
	<path d="M425.967,281.438c-4.269-13.455-28.742-28.557-28.742-28.557s9.23-18.706-0.742-39.518
		c-8.415-17.571-28.127-18.911-28.127-18.911s0.039-18.197-16.412-37.112c-0.963-1.11-4.787-3.701-6.353-2.943
		c-11.582,5.603-17.663,1.833-27.729-6.996c-38.193-33.5-131.075-10.785-149.791,8.83c-17.312,18.143-24.426,38.222-24.426,38.222
		s-19.712,1.339-28.126,18.911c-9.974,20.812-0.748,39.518-0.748,39.518s-24.47,15.103-28.738,28.556
		c-5.637,17.777-2.088,30.353,16.476,43.356C121.171,337.871,256,300.949,256,300.949s134.83,36.922,153.491,23.844
		C428.049,311.788,431.604,299.214,425.967,281.438z M309.046,221.723c-13.875,31.221-37.005,48.563-49.711,48.563
		c-12.727,0-31.803-12.13-50.881-45.087c-11.097-19.179-14.172-39.899-6.355-49.716c8.131-10.213,20.612-10.941,41.043-22.548
		c32.208-18.295,45.129-13.142,53.803-0.431C305.619,165.225,322.921,190.506,309.046,221.723z"/>
	<path d="M117.966,328.097c-7.706,0-13.003-0.974-15.743-2.894c-18.013-12.618-22.686-24.931-16.665-43.917
		c4.036-12.722,25.36-26.565,28.578-28.596c-1.268-2.888-8.216-20.45,0.934-39.542c7.846-16.386,25.59-18.881,28.217-19.163
		c0.976-2.587,8.384-21.29,24.424-38.1c11.773-12.339,52.356-26.087,91.768-26.087c17.826,0,42.482,2.989,58.715,17.226
		c7.192,6.31,11.887,9.513,17.581,9.513c2.855,0,5.995-0.848,9.6-2.591c0.256-0.124,0.558-0.187,0.896-0.187
		c2.01,0,5.189,2.259,6.052,3.252c14.951,17.19,16.384,34.032,16.521,36.986c3.021,0.344,20.36,3.005,28.092,19.149
		c9.148,19.093,2.196,36.655,0.928,39.542c3.219,2.03,24.546,15.873,28.582,28.597c6.019,18.981,1.347,31.294-16.665,43.916
		c-2.778,1.947-7.927,2.895-15.737,2.895c-0.003,0-0.005,0-0.008,0c-39.642-0.004-133.909-25.508-138.033-26.629
		C251.875,302.59,157.598,328.097,117.966,328.097z M259.478,130.799c-38.031,0-79.434,13.609-91.044,25.777
		c-17.033,17.851-24.246,37.844-24.316,38.044l-0.109,0.309l-0.328,0.023c-0.194,0.013-19.523,1.532-27.709,18.628
		c-9.748,20.339-0.842,38.896-0.751,39.081l0.201,0.408l-0.386,0.239c-0.243,0.15-24.361,15.161-28.524,28.282
		c-5.861,18.481-1.294,30.48,16.286,42.796c2.568,1.8,7.672,2.712,15.169,2.712c40.185,0,136.93-26.363,137.902-26.63l0.132-0.036
		l0.132,0.036c0.973,0.267,97.706,26.626,137.901,26.63c0.003,0,0.006,0,0.008,0c7.493,0,12.595-0.913,15.163-2.713
		c17.579-12.319,22.146-24.317,16.286-42.795c-4.164-13.127-28.285-28.132-28.528-28.283l-0.387-0.238l0.201-0.408
		c0.091-0.185,9.001-18.741-0.745-39.081c-8.187-17.094-27.516-18.614-27.71-18.627l-0.466-0.032v-0.468
		c0-0.18-0.165-18.244-16.289-36.783c-0.753-0.868-3.694-2.908-5.297-2.908c-0.188,0-0.342,0.029-0.461,0.087
		c-3.743,1.811-7.025,2.691-10.035,2.691c-6.013,0-10.86-3.287-18.241-9.761C301.534,133.745,277.132,130.799,259.478,130.799z
		 M259.335,270.786c-15.698,0-34.88-16.948-51.313-45.336c-11.484-19.849-14.081-40.524-6.313-50.278
		c4.96-6.23,11.403-8.941,20.321-12.693c5.964-2.509,12.725-5.354,20.866-9.978c14.185-8.058,25.325-11.975,34.054-11.975
		c8.595,0,14.89,3.607,20.409,11.696c8.506,12.475,26.107,38.289,12.145,69.704C296.091,252.105,273.02,270.786,259.335,270.786z
		 M276.949,141.526c-8.552,0-19.529,3.874-33.56,11.844c-8.192,4.654-14.982,7.511-20.972,10.031
		c-8.781,3.694-15.125,6.363-19.927,12.394c-7.517,9.44-4.887,29.653,6.396,49.154c16.252,28.076,35.112,44.837,50.448,44.837
		c13.371,0,36.005-18.453,49.254-48.266c13.736-30.906-3.652-56.409-12.009-68.665C291.219,144.999,285.179,141.526,276.949,141.526
		z"/>
</g>
<g>
	<path d="M102.51,324.975c18.661,13.077,129.822-210.894,91.63-177.394c-10.066,8.829-16.149,12.599-27.731,6.996
		c-1.564-0.758-5.387,1.833-6.351,2.943c-16.451,18.916-16.413,37.112-16.413,37.112s-19.712,1.34-28.126,18.911
		c-9.974,20.813-0.743,39.518-0.743,39.518s-24.475,15.103-28.742,28.557C80.397,299.395,83.952,311.969,102.51,324.975z"/>
	<path d="M104.323,326.026c-0.001,0-0.002,0-0.003,0c-0.784-0.001-1.489-0.217-2.097-0.643
		c-18.012-12.623-22.684-24.937-16.665-43.917c4.035-12.723,25.363-26.567,28.582-28.597c-1.269-2.888-8.221-20.449,0.929-39.543
		c7.73-16.144,25.069-18.804,28.091-19.149c0.136-2.954,1.57-19.794,16.521-36.986c0.862-0.993,4.043-3.251,6.05-3.251
		c0.339,0,0.641,0.063,0.896,0.187c3.604,1.744,6.745,2.591,9.6,2.591c5.696,0,10.39-3.204,17.583-9.513
		c2.719-2.385,4.754-3.544,6.222-3.544c0.85,0,1.526,0.392,1.954,1.134c5.069,8.785-25.735,76.205-54.619,126.168
		C135.479,291.528,114.079,326.026,104.323,326.026z M165.731,154.94c-1.601,0-4.542,2.04-5.295,2.907
		c-16.125,18.541-16.291,36.603-16.291,36.783l0,0.467l-0.466,0.033c-0.194,0.013-19.523,1.534-27.709,18.628
		c-9.756,20.358-0.837,38.896-0.746,39.081l0.201,0.408l-0.387,0.239c-0.243,0.15-24.366,15.161-28.528,28.283
		c-5.859,18.477-1.293,30.476,16.286,42.796c0.436,0.306,0.949,0.461,1.523,0.461c0.001,0,0.002,0,0.003,0
		c6.759,0.001,22.132-19.886,42.179-54.563c28.575-49.43,59.391-116.896,54.618-125.168c-0.25-0.433-0.595-0.634-1.088-0.634
		c-0.824,0-2.458,0.572-5.563,3.296c-7.38,6.474-12.228,9.761-18.242,9.761c-3.01,0-6.292-0.88-10.036-2.691
		C166.072,154.97,165.917,154.94,165.731,154.94z"/>
</g>
<g>
	<path d="M391.196,392.291c-3.472-38.154-47.814-62.076-47.814-62.076l-87.386-28.979l-87.377,28.992
		c0,0-44.353,23.918-47.814,62.082c-2.523,27.681,0,106.188,0,106.188h135.191h135.2
		C391.196,498.499,393.719,419.982,391.196,392.291z M255.996,441.591c0,0-30.278-38.379-39.729-122.812
		c0,0,29.08,16.994,39.729,16.994c10.658,0,39.736-16.994,39.736-16.994C287.461,405.716,255.996,441.591,255.996,441.591z"/>
	<path d="M391.347,498.998H120.321l-0.016-0.484c-0.025-0.785-2.495-78.854,0.002-106.248c3.445-37.992,47.629-62.236,48.075-62.478
		l87.614-29.078l0.157,0.052l87.386,28.979c0.526,0.275,44.699,24.523,48.155,62.506c1.305,14.325,1.235,42.46,0.948,63.539
		c-0.163,11.931-0.412,22.913-0.592,30.024c-0.327,12.939-0.327,12.939-0.579,13.105L391.347,498.998z M121.29,497.998h269.422
		c0.207-6.653,2.392-79.26-0.014-105.662c-3.407-37.443-47.112-61.443-47.554-61.681l-87.148-28.893l-87.22,28.94
		c-0.361,0.203-44.077,24.199-47.473,61.652C118.915,418.561,121.084,491.337,121.29,497.998z M255.976,442.372l-0.372-0.472
		c-0.304-0.385-30.475-39.458-39.833-123.065l-0.111-0.99l0.86,0.503c0.29,0.169,29.084,16.926,39.477,16.926
		c10.401,0,39.194-16.757,39.484-16.926l0.842-0.492l-0.092,0.971c-8.192,86.102-39.543,122.734-39.858,123.095L255.976,442.372z
		 M216.875,319.709c8.872,77.565,35.652,116.313,39.14,121.074c3.649-4.53,31.339-41.29,39.126-121.085
		c-4.947,2.841-29.37,16.575-39.146,16.575C246.241,336.273,221.863,322.572,216.875,319.709z"/>
</g>
<polyline fill="none" points="269.855,229.129 329.697,273.352 329.697,335.094 356.396,338.434 351.391,269.596 "/>
<g>
	<g>
		<path d="M338.64,97.102v30.796c4.685,2.586,7.91,7.607,7.91,13.455c0,8.462-6.679,15.317-14.912,15.317
			c-8.236,0-14.911-6.854-14.911-15.317c0-4.982,2.348-9.363,5.931-12.164v-23.673c-16.666,8.101-37.747,16.164-55.005,15.752
			c-30.346-0.733-102.503-32.673-102.503-32.673l0.058,65.796c0,0,75.345,19.478,98.852,19.478
			c23.517,0,86.096-19.478,86.096-19.478l1.036-64.853C351.189,89.539,346.349,92.736,338.64,97.102z"/>
		<path d="M264.059,174.369c-23.3,0-98.223-19.299-98.977-19.494l-0.375-0.097l-0.059-66.952l0.703,0.312
			c0.721,0.319,72.414,31.908,102.313,32.63c17.76,0.425,39.666-8.357,54.774-15.702l0.719-0.349v24.715l-0.192,0.15
			c-3.646,2.851-5.738,7.141-5.738,11.77c0,8.17,6.465,14.817,14.411,14.817c7.947,0,14.412-6.647,14.412-14.817
			c0-5.424-2.932-10.412-7.651-13.017l-0.259-0.143V96.811l0.254-0.144c7.68-4.35,12.473-7.514,12.52-7.545l0.792-0.526
			l-1.057,66.165l-0.346,0.108C349.677,155.063,287.382,174.369,264.059,174.369z M165.707,154.003
			c5.788,1.483,76.026,19.366,98.352,19.366c22.271,0,80.549-17.792,85.602-19.349l1.016-63.556
			c-1.707,1.101-5.834,3.692-11.536,6.929v30.212c4.887,2.819,7.91,8.059,7.91,13.747c0,8.722-6.914,15.817-15.412,15.817
			s-15.411-7.095-15.411-15.817c0-4.857,2.158-9.364,5.931-12.405v-22.634c-15.18,7.32-36.863,15.887-54.517,15.455
			c-28.496-0.688-94.439-29.113-101.991-32.408L165.707,154.003z"/>
	</g>
	<g>
		<path d="M268.154,71.278c-2.934,0.816-6.229,1.291-9.739,1.291c-12.095,0-21.913-5.515-21.913-12.32
			c0-6.808,9.818-12.328,21.913-12.328c11.871,0,21.508,5.307,21.879,11.932l52.63,30.644l81.578-30.248L263.441,5.922
			L101.84,62.527l166.163,52.043l45.521-16.877L268.154,71.278z"/>
		<path d="M268.017,115.098l-0.163-0.051L100.251,62.553l1.423-0.498L263.443,5.391L415.96,60.242l-83.084,30.806L279.81,60.15
			l-0.015-0.269c-0.354-6.319-9.945-11.46-21.38-11.46c-11.807,0-21.413,5.306-21.413,11.828c0,6.518,9.606,11.82,21.413,11.82
			c3.337,0,6.569-0.428,9.605-1.273l0.203-0.056l0.183,0.106l46.285,26.948L268.017,115.098z M103.428,62.5l164.561,51.541
			l44.368-16.449l-44.273-25.777c-3.063,0.832-6.315,1.253-9.669,1.253c-12.358,0-22.413-5.751-22.413-12.82
			c0-7.073,10.055-12.828,22.413-12.828c12,0,21.731,5.307,22.358,12.132l52.198,30.393l80.072-29.69L263.439,6.453L103.428,62.5z"
			/>
	</g>
</g>
</svg>
