<?xml version="1.0" encoding="utf-8"?>
<!-- Generator: Adobe Illustrator 15.0.0, SVG Export Plug-In . SVG Version: 6.00 Build 0)  -->
<!DOCTYPE svg PUBLIC "-//W3C//DTD SVG 1.1//EN" "http://www.w3.org/Graphics/SVG/1.1/DTD/svg11.dtd">
<svg version="1.1" id="图层_1" xmlns="http://www.w3.org/2000/svg" xmlns:xlink="http://www.w3.org/1999/xlink" x="0px" y="0px"
	 width="512px" height="512px" viewBox="0 0 512 512" enable-background="new 0 0 512 512" xml:space="preserve">
<g>
	
		<image overflow="visible" enable-background="new    " width="98" height="98" xlink:href="5D8E180A.png"  transform="matrix(5.2721 0 0 5.2721 -2.3325 30.6685)">
	</image>
	<g>
		<path d="M342.535,306.798c-3.749-5.274-5.479-9.229-4.819-17.794c0.659-8.566,7.906-9.887,3.295-16.477
			c-4.612-6.59-224.726-7.25-224.726-7.25h-11.168c0,0-2.671,46.132,5.895,55.357c18.774,20.217,69.859,28.342,121.921,29.658
			s94.239-17.139,94.239-17.139C340.353,327.886,346.282,312.068,342.535,306.798z M320.355,286.49c0,0-50.046,32.291-96.176,29.656
			c-46.13-2.636-80.875-19.896-90.102-27.144c-9.226-7.25-3.954-5.931-3.954-5.931s63.927,8.564,98.854,5.931
			c34.928-2.637,91.604-8.565,95.557-9.887C328.489,277.799,320.355,286.49,320.355,286.49z"/>
		<path d="M238.277,350.86c-0.003,0,0.001,0-0.002,0c-1.786,0-3.587-0.022-5.355-0.067c-36.174-0.915-100.161-6.005-122.274-29.818
			c-8.612-9.274-6.138-53.834-6.028-55.727l0.027-0.471h11.64c22.558,0.067,220.508,0.852,225.135,7.463
			c2.85,4.072,1.39,6.4-0.301,9.096c-1.235,1.97-2.635,4.203-2.905,7.706c-0.643,8.348,0.939,12.135,4.729,17.466
			c1.434,2.017,1.59,5.438,0.428,9.385c-1.742,5.921-6.981,14.116-16.013,17.726C326.979,333.785,287.386,350.86,238.277,350.86z
			 M105.591,265.777c-0.248,4.889-2.079,46.045,5.787,54.518c21.864,23.544,85.551,28.588,121.567,29.498
			c1.759,0.045,3.552,0.067,5.33,0.067c48.905,0,88.304-16.992,88.696-17.164c8.713-3.483,13.76-11.38,15.439-17.086
			c1.059-3.598,0.953-6.784-0.283-8.522c-3.855-5.424-5.574-9.52-4.91-18.122c0.288-3.75,1.821-6.195,3.054-8.161
			c1.686-2.687,2.799-4.462,0.33-7.99c-3.275-4.68-135.943-6.772-224.318-7.037H105.591z M229.614,316.8
			c-1.839,0-3.677-0.052-5.463-0.154c-45.38-2.593-80.49-19.479-90.383-27.249c-5.376-4.226-5.845-5.536-5.594-6.262
			c0.085-0.245,0.353-0.656,1.198-0.656c0.432,0,0.854,0.104,0.872,0.108c0.425,0.054,48.343,6.419,83.443,6.419
			c0.001,0,0.002,0,0.003,0c5.703,0,10.833-0.169,15.249-0.502c35.931-2.712,91.717-8.619,95.437-9.862
			c0.326-0.108,0.595-0.161,0.821-0.161c0.571,0,0.783,0.347,0.848,0.495c0.56,1.288-3.096,5.476-5.324,7.856l-0.094,0.078
			c-0.464,0.299-46.837,29.887-91.008,29.89C229.617,316.8,229.615,316.8,229.614,316.8z M129.373,283.479
			c-0.225,0-0.294,0.042-0.295,0.043c0.039,0.022,0.125,1.015,5.309,5.088c9.812,7.708,44.678,24.459,89.821,27.038
			c1.768,0.101,3.586,0.152,5.406,0.152c0.001,0,0.003,0,0.005,0c43.224-0.003,88.625-28.559,90.415-29.697
			c2.385-2.554,4.865-5.677,5.073-6.613c-0.098,0.011-0.228,0.039-0.414,0.102c-4.175,1.396-61.403,7.323-95.678,9.911
			c-4.439,0.334-9.596,0.504-15.324,0.504c-0.001,0-0.001,0-0.003,0c-35.167,0-83.15-6.374-83.631-6.438
			C129.999,283.557,129.678,283.479,129.373,283.479z"/>
	</g>
	<g>
		<g>
			<path d="M387.368,168.692c-1.771,0.221-2.862,0.371-2.862,0.371L387.368,168.692z"/>
			<path d="M384.57,169.559l-0.133-0.991c0,0,1.094-0.15,2.869-0.372l0.126,0.992L384.57,169.559z"/>
		</g>
		<g>
			<path d="M439.862,152.588c-18.452-4.613-52.114,16.058-52.114,16.058l-0.38,0.046c8.711-1.07,35.35-4.016,46.542-1.349
				c20.395,4.84,44.835,16.218,44.835,16.218C480.063,178.948,458.315,157.201,439.862,152.588z"/>
			<path d="M479.065,184.261l-0.531-0.247c-0.244-0.113-24.63-11.412-44.739-16.185c-2.99-0.712-7.37-1.073-13.02-1.073
				c-11.631,0-25.646,1.495-32.966,2.386l-0.381,0.046l-1.897,0.231l1.791-1.099l-0.015-0.125l0.273-0.034
				c2.048-1.247,27.885-16.746,46.314-16.746c2.219,0,4.267,0.231,6.088,0.687c16.022,4.005,33.843,20.334,38.206,27.891
				c0.943,1.633,1.282,2.845,1.036,3.704L479.065,184.261z M420.775,165.756c5.728,0,10.186,0.37,13.251,1.101
				c18.321,4.348,40.147,14.075,44.25,15.94c-0.074-0.476-0.319-1.206-0.952-2.302c-4.29-7.427-21.816-23.48-37.583-27.422
				c-1.742-0.436-3.709-0.656-5.846-0.656c-15.544,0-37.141,11.623-43.829,15.45C397.801,166.972,410.253,165.756,420.775,165.756z"
				/>
		</g>
		<g>
			<path d="M495.879,245.509c-0.88-21.088-12.615-47.053-13.18-52.721c-0.658-6.59-3.954-9.226-3.954-9.226
				c-1.317,4.613,3.954,38.881-2.637,65.901c-6.592,27.02-13.842,48.105-9.228,50.745c4.614,2.635,13.842,10.544,24.384,3.956
				c10.547-6.596,10.547-6.596,10.547-6.596S496.537,261.326,495.879,245.509z"/>
			<path d="M482.761,307.223C482.76,307.223,482.76,307.223,482.761,307.223c-5.747-0.001-10.568-3.075-14.088-5.319
				c-0.755-0.481-1.438-0.917-2.04-1.261c-3.835-2.194-0.604-14.438,4.284-32.973c1.461-5.538,3.117-11.815,4.706-18.326
				c4.555-18.675,3.416-40.936,2.736-54.236c-0.313-6.137-0.521-10.191-0.095-11.684l0.206-0.723l0.587,0.469
				c0.141,0.113,3.468,2.845,4.139,9.567c0.174,1.743,1.504,5.662,3.188,10.624c3.739,11.016,9.391,27.663,9.994,42.126
				c0.649,15.611,5.875,51.646,5.928,52.008l0.047,0.323l-10.824,6.769C488.732,306.336,485.782,307.223,482.761,307.223z
				 M479.081,184.624c-0.16,1.888,0.03,5.604,0.277,10.433c0.683,13.355,1.825,35.708-2.765,54.524
				c-1.59,6.52-3.247,12.801-4.709,18.343c-4.428,16.781-7.924,30.036-4.756,31.85c0.615,0.351,1.312,0.795,2.081,1.285
				c3.417,2.179,8.096,5.162,13.55,5.163h0.001c2.831,0,5.604-0.836,8.239-2.482l10.271-6.423
				c-0.525-3.644-5.272-36.919-5.892-51.788c-0.597-14.319-6.22-30.885-9.941-41.847c-1.771-5.218-3.051-8.989-3.235-10.846
				C481.754,188.354,480.035,185.752,479.081,184.624z"/>
		</g>
	</g>
	<g>
		<path d="M232.052,198.936c-12.083,0-13.772,0.973-17.134,3.954c-5.031,4.469,9.242,11.481,19.568,10.02
			c10.309-1.454,13.995-6.787,14.041-8.48C248.574,202.734,244.352,198.936,232.052,198.936z"/>
		<path d="M231.565,213.607c-7.762,0-16.496-3.674-17.973-7.559c-0.343-0.903-0.45-2.25,0.994-3.532
			c3.42-3.032,5.225-4.08,17.466-4.08c11.179,0,15.086,3.124,16.018,4.081c0.643,0.661,0.974,1.327,0.957,1.927
			c-0.049,1.781-3.706,7.443-14.471,8.961C233.611,213.539,232.604,213.607,231.565,213.607z M232.052,199.436
			c-11.916,0-13.522,0.92-16.803,3.828c-0.828,0.735-1.064,1.53-0.722,2.429c1.183,3.112,9.277,6.914,17.038,6.914
			c0.993,0,1.952-0.064,2.852-0.192c10.224-1.442,13.574-6.653,13.611-7.999c0.003-0.116-0.036-0.546-0.674-1.202
			C246.491,202.328,242.84,199.436,232.052,199.436z"/>
	</g>
	<g>
		<path d="M161.756,163.791L8.206,254.735c0,0-6.59,3.294,21.088,4.611c27.679,1.319,355.211,9.887,355.211,9.887V169.063
			L161.756,163.791z M230.626,220.466c-13.51,0-27.133-9.226-25.372-17.134c0,0,2.636-11.862,22.407-11.862
			c19.77,0,27.019,4.613,28.336,11.862C257.314,210.581,244.136,220.466,230.626,220.466z"/>
		<path d="M385.005,269.746l-0.513-0.014c-3.275-0.086-327.854-8.583-355.222-9.888c-19.353-0.92-21.954-2.744-22.227-4.036
			c-0.158-0.751,0.516-1.309,0.939-1.521l153.642-91l223.38,5.287V269.746z M161.887,164.294L8.461,255.165
			c-0.232,0.12-0.461,0.335-0.439,0.438c0.082,0.376,1.492,2.302,21.296,3.244c26.848,1.279,339.944,9.486,354.687,9.872v-99.167
			L161.887,164.294z M230.626,220.966c-8.975,0-18.86-4.206-23.506-10c-2.088-2.604-2.902-5.281-2.354-7.743
			c0.027-0.122,2.954-12.253,22.896-12.253c18.146,0,27.307,3.899,28.828,12.272c0.427,2.351-0.516,4.994-2.727,7.643
			C249.71,215.741,240.742,220.966,230.626,220.966z M227.661,191.97c-19.096,0-21.894,11.356-21.919,11.471
			c-0.479,2.154,0.267,4.54,2.158,6.899c4.473,5.577,14.03,9.625,22.727,9.625c9.794,0,18.461-5.039,22.369-9.721
			c2.015-2.414,2.883-4.773,2.51-6.823C254.086,195.609,245.238,191.97,227.661,191.97z"/>
	</g>
</g>
</svg>
