<?xml version="1.0" encoding="utf-8"?>
<!-- Generator: Adobe Illustrator 15.0.0, SVG Export Plug-In . SVG Version: 6.00 Build 0)  -->
<!DOCTYPE svg PUBLIC "-//W3C//DTD SVG 1.1//EN" "http://www.w3.org/Graphics/SVG/1.1/DTD/svg11.dtd">
<svg version="1.1" id="图层_1" xmlns="http://www.w3.org/2000/svg" xmlns:xlink="http://www.w3.org/1999/xlink" x="0px" y="0px"
	 width="512px" height="512px" viewBox="0 0 512 512" enable-background="new 0 0 512 512" xml:space="preserve">
<path d="M71.978,502.939c-6.583,0.001-12.211-1.213-15.017-4.63c-2.605-3.172-3.55-8.784,2.361-14.158
	c11.923-10.837,21.261-45.531,25.425-65.279c-3.246,0.006-6.282,0.015-9.09,0.023c-8.727,0.025-15.033,0.044-18.961-0.033
	C6.936,417.87,3.101,396.684,3.114,366.86c0.042-81.534,0-276.402,0-278.361V56.077c0-26.275,15.511-38.727,28.522-44.544
	c13.399-5.992,26.679-6.061,27.237-6.061h395.632c10.035,0,28.714,0,41.654,12.962c8.676,8.689,13.062,21.576,13.034,38.301
	c-0.071,46.065-0.001,185.01,0,186.408l-14,0.007c-0.001-1.398-0.071-140.357,0-186.437c0.021-12.874-2.987-22.424-8.941-28.388
	c-8.839-8.854-23.179-8.854-31.747-8.854H58.874c-1.688,0.008-41.76,0.623-41.76,36.605v32.357c0,2.021,0.042,196.894,0,278.433
	c-0.011,23.988-0.017,37.203,39.857,37.997c3.768,0.075,10.333,0.056,18.644,0.031c5.148-0.015,11.06-0.032,17.625-0.032h8.325
	l-1.429,8.201c-1.022,5.866-9.762,53.721-26.355,75.813c15.813-0.968,52.527-9.591,83.167-32.277
	c38.889-28.792,46.974-46.444,47.436-47.513l1.573-4.75l4.986,0.201c101.179,0,250.061,0.305,258.276,0.321
	c1.187-0.133,7.581-0.992,13.723-4.567c8.441-4.914,12.544-12.477,12.544-23.121c0-23.095-0.015-32.285-0.025-38.901
	c-0.009-5.716-0.015-9.515-0.006-18.685c0.008-9.003-2.351-15.705-7.01-19.922c-7.22-6.531-18.082-5.641-18.189-5.627l-0.365,0.036
	l-0.368-0.001c-55.859-0.232-391.232-0.956-397.136-0.969c-1.657-0.004-6.341-0.364-11.051-4.752
	c-7.587-7.068-11.435-20.954-11.435-41.271c0-18.352,3.687-31.092,10.957-37.865c4.938-4.601,9.906-4.936,11.578-4.91h364.767
	c2.503-0.402,9.27-7.063,9.617-32.622c0.287-21.221-6.234-27.592-9.879-28.059l-0.285,0.034l0.216-0.042
	c-0.02-0.002-0.038-0.004-0.058-0.006H58.303v-14h378.561c1.506-0.009,7.6,0.325,13.453,6.113c7.196,7.116,10.729,19.278,10.5,36.15
	c-0.281,20.683-4.463,34.747-12.43,41.804c-4.968,4.399-9.846,4.698-11.658,4.628H72.313c-2.26,0.375-8.412,6.339-8.412,28.775
	c0,24.647,6.213,31.49,8.518,32.022c5.974,0.013,340.146,0.733,396.872,0.968c2.799-0.195,17.583-0.708,28.547,9.212
	c7.721,6.985,11.629,17.186,11.617,30.315c-0.009,9.153-0.003,12.944,0.006,18.65c0.011,6.62,0.025,15.814,0.025,38.923
	c0,30.622-25.782,40.647-39.415,41.67l-0.269,0.021l-0.27-0.001c-1.518-0.003-150.85-0.313-254.285-0.322
	c-4.536,7.845-17.155,25.02-49.969,49.313c-24.606,18.22-51.173,26.972-64.819,30.568C92.634,500.482,81.341,502.939,71.978,502.939
	z"/>
</svg>
