<?xml version="1.0" encoding="utf-8"?>
<!-- Generator: Adobe Illustrator 15.0.0, SVG Export Plug-In . SVG Version: 6.00 Build 0)  -->
<!DOCTYPE svg PUBLIC "-//W3C//DTD SVG 1.1//EN" "http://www.w3.org/Graphics/SVG/1.1/DTD/svg11.dtd">
<svg version="1.1" id="图层_1" xmlns="http://www.w3.org/2000/svg" xmlns:xlink="http://www.w3.org/1999/xlink" x="0px" y="0px"
	 width="512px" height="512px" viewBox="0 0 512 512" enable-background="new 0 0 512 512" xml:space="preserve">
<g>
	<polygon points="79.337,318.049 79.337,329.617 202.768,329.617 202.768,318.049 	"/>
	<path d="M204.768,331.617H77.337v-15.568h127.431V331.617z M81.337,327.617h119.431v-7.568H81.337V327.617z"/>
</g>
<g>
	<polygon points="79.337,267.408 79.337,278.975 289.191,278.975 289.191,267.408 	"/>
	<path d="M291.191,280.975H77.337v-15.566h213.854V280.975z M81.337,276.975h205.854v-7.566H81.337V276.975z"/>
</g>
<g>
	<polygon points="79.337,218.85 79.337,228.331 289.191,228.331 289.191,218.85 	"/>
	<path d="M291.191,230.331H77.337V216.85h213.854V230.331z M81.337,226.331h205.854v-5.481H81.337V226.331z"/>
</g>
<path d="M428.167,257.553l-65.31-23.514l0.896-2.764c11.335-34.961,24.092-69.035,37.916-101.276
	c12.415-28.98,29.327-46.283,45.238-46.283c13.084,0,21.75,11.688,22.902,30.66l35.062,12.623l-5.167,10.109
	c-19.167,37.403-38.84,77.332-42.025,86.497c0.079-0.004,0.136-0.008,0.158-0.011l4.04-0.41l-0.773,3.979l-3.319,16.617
	l-2.435,0.025c-4.699,0-13.415-2.748-16.949-12.982c-2.975,8.049-6.032,16.061-9.167,24.019L428.167,257.553z M370.36,230.363
	l54.355,19.57c12.776-32.67,24.237-66.188,34.082-99.676c2.031-6.874,3.48-13.504,4.307-19.713l0.49-3.685l21.825,7.849
	l-1.537,3.031c-28.757,56.688-40.758,86.494-39.894,90.887c1.989,6.095,6.252,8.145,8.94,8.833l1.653-8.279
	c-2.141-0.747-2.9-2.272-3.153-3.043c-0.56-1.711-1.137-3.475,20.498-47.226c10.14-20.502,20.47-40.698,22.438-44.539l2.063-4.036
	l-32.457-11.684l-0.063-2.038c-0.523-16.591-7.037-26.897-17-26.897c-10.371,0-26.253,11.203-39.724,42.646
	C393.796,163.587,381.413,196.543,370.36,230.363z M468.503,135c-0.9,5.43-2.225,11.115-3.95,16.953
	c-3.155,10.732-6.476,21.468-9.952,32.179c7.917-17.131,16.863-35.119,22.396-46.077L468.503,135z"/>
<path d="M354.874,391.353l-10.875-3.912l0.001-0.002l-10.348-3.729l-7.371-45.857l15.584-18.823l48.048,17.298l-1.415,26.276
	L354.874,391.353z M351.675,383.825l1.949,0.701l29.021-24.814l1.037-19.253l-39.883-14.358l-11.162,13.483l6.379,39.68l1.559,0.563
	l7.677-21.333c-2.844-3.262-3.754-7.854-2.236-12.036c1.722-4.776,6.295-7.99,11.377-7.99c1.392,0,2.766,0.24,4.085,0.714
	c3.041,1.095,5.472,3.307,6.846,6.229c1.373,2.921,1.526,6.204,0.431,9.243c-1.489,4.149-5.136,7.118-9.403,7.826L351.675,383.825z
	 M355.195,356.595l2.183,0.046c2.563,0,4.866-1.615,5.729-4.02c0.553-1.535,0.477-3.188-0.215-4.659s-1.916-2.584-3.447-3.136
	c-0.664-0.238-1.355-0.359-2.054-0.359c-2.561,0-4.865,1.62-5.734,4.031c-0.896,2.467-0.117,5.209,1.934,6.83L355.195,356.595z"/>
<path d="M393.592,336.556l-21.456-7.723c-10.178-3.661-20.356-7.323-30.533-10.998l-2.568-0.927l0.682-2.644
	c6.763-26.226,13.768-50.698,21.415-74.816l0.941-2.971l65.153,23.437l-1.161,2.888c-9.577,23.832-20.109,47.821-31.304,71.302
	L393.592,336.556z M346.21,313.12c9.318,3.362,18.638,6.715,27.956,10.066l16.345,5.883c10.256-21.634,19.941-43.684,28.822-65.618
	l-53.422-19.217C358.917,266.474,352.455,289.07,346.21,313.12z"/>
<path d="M280.261,405.722l1.804-6.972c0.031-0.118,0.063-0.239,0.095-0.361l0.364-1.595c0.503-2.105,1.049-4.42,1.591-6.831
	c1.736-7.864-1.29-9.22-4.821-10.003c-3.816-0.851-8.987,1.064-13.988,2.916c-0.866,0.32-1.591,0.625-2.217,0.886l-3.107,1.293
	l-2.13-2.13c-5.98-5.982-14.199-3.704-27.115,0.506c-4.077,1.323-8.691,2.822-13.19,3.753l-13.385,2.771l9.121-10.181
	c3.355-3.745,6.82-8.253,7.083-13.3c0.069-1.272,0.028-3.473-1.015-4.023c-1.005-0.531-7.207-2.471-30.599,11.553
	c-13.281,7.963-25.081,16.914-25.196,17.003l-5.51-7.116c0.107-0.084,12.04-9.164,25.819-17.45
	c26.062-15.67,35.103-14.338,39.637-11.975c2.895,1.51,6.26,4.901,5.851,12.485c-0.152,2.924-0.91,5.633-2.016,8.121
	c0.207-0.067,0.412-0.134,0.615-0.2c11.873-3.87,24.122-7.863,33.96-0.336c0.063-0.023,0.125-0.047,0.188-0.07
	c6.016-2.227,12.742-4.72,19.144-3.292c5.78,1.282,14.981,5.683,11.656,20.746c-0.266,1.18-0.531,2.333-0.791,3.449
	c9.308-0.347,18.833,0.81,19.716,1.125l-1.514,4.238l-0.675,4.449c-0.124-0.019-12.811-1.724-22.73-0.367L280.261,405.722z"/>
<path fill="none" stroke="#000000" stroke-width="9" stroke-miterlimit="10" d="M310.311,400.732"/>
<path d="M415.145,449.395H54.487c-20.952,0-37.998-17.045-37.998-37.996V198.619c0-20.952,17.046-37.998,37.998-37.998h307.578v9
	H54.487c-15.99,0-28.998,13.008-28.998,28.998v212.779c0,15.988,13.008,28.996,28.998,28.996h360.658
	c15.988,0,28.996-13.008,28.996-28.996V270.162h9v141.236C453.141,432.35,436.096,449.395,415.145,449.395z"/>
</svg>
