<?xml version="1.0" encoding="utf-8"?>
<!-- Generator: Adobe Illustrator 15.0.0, SVG Export Plug-In . SVG Version: 6.00 Build 0)  -->
<!DOCTYPE svg PUBLIC "-//W3C//DTD SVG 1.1//EN" "http://www.w3.org/Graphics/SVG/1.1/DTD/svg11.dtd">
<svg version="1.1" id="图层_1" xmlns="http://www.w3.org/2000/svg" xmlns:xlink="http://www.w3.org/1999/xlink" x="0px" y="0px"
	 width="512px" height="512px" viewBox="0 0 512 512" enable-background="new 0 0 512 512" xml:space="preserve">
<g>
	<path fill="none" stroke="#000000" stroke-width="9" stroke-miterlimit="10" d="M291.014,236.384"/>
	<path d="M377.185,307.502l-34.795-19.587l6.811-33.002h-65.582v-9h76.625l-7.709,37.387l22.025,12.39l35.574-49.777h31.042
		c11.299,0,21.97-5.003,30.046-14.089c8.215-9.233,12.738-21.509,12.738-34.566V75.004c0-13.058-4.523-25.334-12.737-34.568
		c-8.078-9.087-18.749-14.091-30.047-14.091H264.762c-11.3,0-21.967,5.003-30.037,14.088c-8.211,9.239-12.733,21.516-12.733,34.571
		v8.718h-9v-8.718c0-15.261,5.329-29.662,15.005-40.548c9.8-11.034,22.857-17.111,36.764-17.111h176.414
		c13.904,0,26.964,6.077,36.772,17.11c9.68,10.882,15.012,25.283,15.012,40.549v122.253c0,15.266-5.332,29.666-15.013,40.547
		c-9.808,11.032-22.866,17.108-36.771,17.108h-26.413L377.185,307.502z"/>
	<path d="M184.027,491.735c-35.357,0-68.518-2.111-95.898-6.105l-2.188-0.319l-11.015-19.583l-5.042,16.815l-4.067-0.879
		c-22.381-4.84-37.664-11.137-45.423-18.718L19,461.583l0.041-1.949c0.993-47.663,10.354-111.615,49.309-145.614l1.271-1.109h1.688
		c14.689,0,26.279-0.033,36.472-0.105l0.226-0.002l0.225,0.021c9.545,0.89,16.45-1.342,21.089-6.865l4.499-5.355l42.772,89.767
		l7.803-43.198l-7.239-3.301l0.464-15.971h41.769l0.461,15.971l-7.241,3.301l7.183,39.777l35.105-80.597l4.246,2.127
		c4.746,2.38,11.581,3.236,20.426,2.558l0.321-0.014c10.001-0.053,21.078-0.078,33.863-0.078h1.791l1.302,1.231
		c15.271,14.448,28.715,38.647,37.854,68.142c8.677,28.004,12.238,57.124,9.771,79.894l-0.221,2.04l-1.685,1.171
		c-9.714,6.752-26.068,12.549-48.607,17.228l-4.039,0.838l-4.732-15.763l-10.314,18.343l-2.173,0.328
		C261.372,489.129,222.778,491.734,184.027,491.735z M91.612,477.037c26.532,3.729,58.423,5.698,92.414,5.698
		c37.422-0.001,74.658-2.453,105.159-6.915l18.534-32.96l8.439,28.113c17.742-3.934,31.308-8.672,39.57-13.823
		c3.69-41.576-13.889-107.546-43.798-137.205c-11.938,0.003-22.37,0.027-31.836,0.077c-8.273,0.623-15.035,0.059-20.589-1.716
		l-43.304,99.42l-13.693-75.841l8.171-3.726l-0.036-1.26h-24.283l-0.036,1.26l8.17,3.727l-14.012,77.573L131.34,316.325
		c-6.128,4.495-14.061,6.347-23.717,5.48c-9.761,0.068-20.801,0.102-34.602,0.104c-36.628,33.269-43.948,98.364-44.935,135.856
		c4.88,4.04,14.923,9.358,35.576,14.188l8.724-29.099L91.612,477.037z M193.212,308.018c-4.561,0-8.664-0.645-12.194-1.915
		c-30.816-11.003-52.162-24.507-62.856-57.312c-5.285-3.178-9.379-8.183-12.189-14.905c-3.064-7.364-4.523-16.891-4.34-28.324
		l0.088-5.726l4.047-2.74c-5.761-44.318-0.247-66.319,20.629-83.415c15.668-12.836,39.134-20.198,64.38-20.198
		c23.378,0,45.496,6.384,60.684,17.517c21.951,16.087,30.188,43.923,25.14,85.036c0.299,0.192,0.598,0.389,0.896,0.59l4.753,3.227
		l0.089,5.711c0.17,11.232-1.229,20.602-4.16,27.852c-2.697,6.688-6.652,11.724-11.771,14.993
		c-8.828,26.476-36.742,56.234-67.771,59.332C196.769,307.925,194.945,308.018,193.212,308.018z M110.647,204.661l-0.016,1.042
		c-0.164,10.193,1.063,18.509,3.647,24.718c2.254,5.392,5.503,9.19,9.655,11.282l1.711,0.862l0.564,1.831
		c9.438,30.619,28.356,42.705,57.846,53.233c3.607,1.3,8.28,1.691,13.689,1.153c27.115-2.707,53.222-30.462,60.59-54.686
		l0.538-1.767l1.623-0.88c4.021-2.18,7.163-6.018,9.336-11.406c2.479-6.133,3.659-14.322,3.508-24.344l-0.017-1.031l-0.872-0.592
		c-0.952-0.643-1.915-1.232-2.853-1.745l-2.716-1.486l0.417-3.068c5.329-39.169-1.592-65.18-21.159-79.521
		c-13.678-10.025-33.857-15.775-55.363-15.775c-23.203,0-44.59,6.619-58.678,18.16c-18.67,15.29-22.969,34.988-17.036,78.063
		l0.407,2.956l-2.564,1.526c-0.478,0.284-0.943,0.583-1.413,0.9L110.647,204.661z"/>
</g>
</svg>
